<?xml version="1.0" encoding="utf-8"?>
<!-- Generator: Adobe Illustrator 20.0.0, SVG Export Plug-In . SVG Version: 6.00 Build 0)  -->
<svg version="1.1" id="Layer_1" xmlns="http://www.w3.org/2000/svg" xmlns:xlink="http://www.w3.org/1999/xlink" x="0px" y="0px"
	 viewBox="0 0 800.1 684.2" style="enable-background:new 0 0 800.1 684.2;" xml:space="preserve">
<g>
	<path d="M525.2,416.5c-8.9,23.3-19.3,44-44.6,51.3c-5.3,1.5-11.2,1.9-16.8,1.9c-92.8,0.1-285.1,0-288.5,0.2
		c-9.8,0.8-16.7,8.5-16.3,18c0.3,9.2,7.7,16.5,17.3,16.6c16.2,0.2,206.8-0.2,286,0.2c35.3,0.2,61.2-15.3,80.1-44.1
		c11.3-17.2,16.8-36.7,22.3-56.4c17.5-62.3,83.9-288.8,98.9-339.8c5-17,21.7-29.6,39.6-29.6c26.5-0.1,53,0,79.5-0.1
		c7.4,0,12.8-3.6,15.8-10.3c3.1-6.7,1.7-13.1-3-18.6c-3.5-4-8.2-5.8-13.4-5.8c-33.3,0.1-66.7,0.1-100,0.8
		c-7.8,0.2-15.9,2.1-23.4,4.5c-14.5,4.7-23.7,14.9-27.8,29.6c-31.7,114-63.5,228-95.1,342c-0.9,3.3-2,4.9-5.9,4.9
		c-116.5-0.2-233-0.2-349.5-0.1c-12.7,0-22.2-3.9-27.9-15.9c-11.4-24.1-23.6-47.8-34.5-72c-0.2-0.4-0.4-0.8-0.6-1.2
		c-25.7-56.8-51.1-113.7-76.1-170.7c-3.6-8.2-5-17.5-6.1-26.5c-0.9-7.1,1.7-9.4,8.9-9.6c11.5-0.3,343.8-0.2,498.4-0.2
		c10.4,0,17.7-5.3,19.5-13.7c2.3-11.4-5.7-21.1-17.8-21.1c-34.8-0.1-362.5,0-491.4,0c-6.3,0-12.7,0.2-18.9,1.5
		C13.3,56.3,0.7,71.9,0,92.8c-0.4,14.6,2.9,28.6,8.8,41.7c33,73.9,110.9,243.3,116.9,254c9.6,17.1,24.9,26.1,44,26.9
		C194.8,416.6,521.3,416.5,525.2,416.5z"/>
	<path d="M179.4,521.7c45.4,0,81.9,36.3,81.8,81.4c-0.1,45-36.8,81.5-81.6,81.1c-44.8-0.4-80.8-36.7-80.7-81.4
		C98.9,558.2,135.1,521.7,179.4,521.7z M132.1,602.8c0,26.5,21.2,47.8,47.9,47.9c26,0.2,47.8-21.5,47.8-47.6
		c0.1-26.3-21.5-47.9-48-47.9C153.7,555.2,132.2,576.7,132.1,602.8z"/>
	<path d="M394.7,603.6c-0.4-44.6,35.7-81.5,80.3-81.9c44.5-0.4,81.7,35.6,82.1,79.6c0.5,45.8-35.3,82.5-80.8,82.9
		C431.8,684.6,395.1,648.4,394.7,603.6z M523.8,602.8c-0.1-26.2-21.8-47.6-48-47.5c-26.4,0.1-47.7,21.4-47.7,47.7
		c0,26.2,21.4,47.7,47.7,47.8C502.2,650.8,523.9,629.1,523.8,602.8z"/>
</g>
</svg>
