<svg xmlns="http://www.w3.org/2000/svg" width="35.555" height="35.556" viewBox="0 0 35.555 35.556">
    <g id="prefix__confirm" transform="translate(-.004)">
        <g id="prefix__Group_86" data-name="Group 86" transform="translate(.004)">
            <path id="prefix__Path_96" d="M17.782 0a17.778 17.778 0 1 0 17.777 17.778A17.8 17.8 0 0 0 17.782 0zm8.2 15.039l-9.334 9.335a.558.558 0 0 1-.767 0l-6.263-6.263a.539.539 0 0 1-.158-.384.545.545 0 0 1 .158-.384l.8-.8a.547.547 0 0 1 .767 0l4.882 4.882a.276.276 0 0 0 .392 0l7.954-7.954a.558.558 0 0 1 .767 0l.8.8a.541.541 0 0 1 0 .767z" data-name="Path 96" transform="translate(-.004)" style="fill:#7daf3f"/>
        </g>
    </g>
</svg>
