<svg xmlns="http://www.w3.org/2000/svg" width="20.015" height="20" viewBox="0 0 20.015 20">
    <g id="prefix__filter" transform="translate(.009)">
        <g id="prefix__Group_277" data-name="Group 277" transform="translate(-.009)">
            <g id="prefix__Group_276" data-name="Group 276">
                <path id="prefix__Path_262" d="M8.332 20a3.609 3.609 0 0 1-.417-.083.994.994 0 0 1-.417-.75v-7.25L.165 1.333A.894.894 0 0 1 .082.417.875.875 0 0 1 .832 0h18.333a.875.875 0 0 1 .75.417.767.767 0 0 1-.083.833L12.5 11.917V17.5a.8.8 0 0 1-.5.75l-3.335 1.667C8.582 20 8.5 20 8.332 20zM2.415 1.667L9 11.167a1.184 1.184 0 0 1 .167.5v6.167L10.832 17v-5.333a1.184 1.184 0 0 1 .167-.5l6.583-9.5z" data-name="Path 262" transform="translate(.009)" style="fill:#7daf3f"/>
            </g>
        </g>
    </g>
</svg>
