<svg xmlns="http://www.w3.org/2000/svg" width="19.6" height="27.592" viewBox="0 0 19.6 27.592">
  <g id="_1814106-location-map-marker" data-name="1814106-location-map-marker" transform="translate(-15.2 -8.4)">
    <g id="Icon-Location" transform="translate(15.2 8.4)">
      <path id="Fill-55" d="M-207-340.008l-.525-.642c-.35-.467-9.275-10.908-9.275-17.15a9.821,9.821,0,0,1,9.8-9.8,9.859,9.859,0,0,1,9.8,9.8c0,6.242-8.925,16.742-9.275,17.15l-.525.642Zm0-26.25a8.4,8.4,0,0,0-8.4,8.4c0,4.9,6.475,13.242,8.4,15.633,1.925-2.392,8.4-10.675,8.4-15.633a8.4,8.4,0,0,0-8.4-8.4Z" transform="translate(216.8 367.6)" fill="#4d302b"/>
      <path id="Fill-56" d="M-202.667-349.733a3.759,3.759,0,0,1-3.733-3.733,3.759,3.759,0,0,1,3.733-3.733,3.759,3.759,0,0,1,3.733,3.733,3.759,3.759,0,0,1-3.733,3.733Zm0-6.067A2.34,2.34,0,0,0-205-353.467a2.34,2.34,0,0,0,2.333,2.333,2.34,2.34,0,0,0,2.333-2.333,2.34,2.34,0,0,0-2.333-2.333Z" transform="translate(212.467 363.267)" fill="#4d302b"/>
    </g>
  </g>
</svg>
