<svg xmlns="http://www.w3.org/2000/svg" width="26" height="26" viewBox="0 0 26 26">
  <g id="Group_2" data-name="Group 2" transform="translate(-517 -32)" style="isolation: isolate">
    <g id="Layer_2" data-name="Layer 2" transform="translate(517 32)">
      <g id="search">
        <rect id="Rectangle_3" data-name="Rectangle 3" width="26" height="26" fill="#b7b7b7" opacity="0"/>
        <path id="Path_16" data-name="Path 16" d="M22.265,20.721l-3.7-3.688a8.616,8.616,0,0,0,1.838-5.33,8.7,8.7,0,1,0-8.7,8.7,8.616,8.616,0,0,0,5.33-1.838l3.688,3.7a1.092,1.092,0,1,0,1.545-1.545ZM5.176,11.7A6.527,6.527,0,1,1,11.7,18.23,6.527,6.527,0,0,1,5.176,11.7Z" transform="translate(0.263 0.263)" fill="#b7b7b7"/>
      </g>
    </g>
  </g>
</svg>
