<svg xmlns="http://www.w3.org/2000/svg" width="341.816" height="433.262" viewBox="0 0 341.816 433.262">
  <g id="Group_338" data-name="Group 338" transform="translate(-149.184 -180.467)">
    <g id="Group_332" data-name="Group 332" transform="translate(37.232 23.281)">
      <g id="Group_315" data-name="Group 315" transform="translate(111.952 193.114)" opacity="0.63">
        <path id="Path_267" data-name="Path 267" d="M391.044,292.338c-1.3.831-2.6,1.713-2.484,1.928C389.832,293.514,391.288,292.626,391.044,292.338ZM260.307,327.912c.915.129-3.72,2.8-3.678,2.289C257.862,329.433,258.593,328.87,260.307,327.912Zm-36.138,79.477c3.725-4.849,9.358-10.633,14.751-16.231,4.151-4.254,7.485-7.964,13.2-13.216-4,4.12-8.715,9.067-13.578,14.167Zm29.751-31.125a107.075,107.075,0,0,1,8.1-7.753C260.536,370.291,256.909,373.407,253.921,376.263Zm50.365-43.906a50.877,50.877,0,0,1,5.724-4.9c2.479-1.885,5.218-3.891,7.337-5.56-1.418,1.294-3.736,3.194-6.179,5.118S306.193,330.945,304.285,332.357ZM410.617,275.63c-4.14,2.205-15.224,6.47-20.372,8.592C396.712,281.432,402.967,278.685,410.617,275.63Zm-75.846,31.292a13.68,13.68,0,0,1,2.975-2.246A18.525,18.525,0,0,1,334.772,306.922Zm-152.93,64.234c-1.532,1.308-5.815,4.221-7.495,5.3-.242-.085.876-.851.414-.828-.356,0-3.071,2.189-3.53,2.281,2.138-2.056,6.916-4.853,10.478-7.513.54.006-2.143,1.622-2.449,2.052A17.48,17.48,0,0,0,181.841,371.156ZM262.7,309.833c-2.806,1.1-3.9,1.789-6.705,2.895-1,.442-1.138.384-.554.137A72.766,72.766,0,0,1,262.7,309.833Zm-77.566,37.851c-.332.529-3.033,1.781-5.395,2.954a6.635,6.635,0,0,1,1.052-1.21C183.726,347.858,184.294,347.67,185.129,347.684Zm1.607-1.278,2.705-1.328c-.473.676,1.788-.485,3.259-1.116-1.069.69-3.372,1.764-4.863,2.586C187.218,346.539,187.7,346.273,186.735,346.406ZM174.9,352.545c-.543.562-.542.69.027.677-1.324.769-2.851,1.6-4.8,2.582.371-.494-.565-.066-.562-.3A54.652,54.652,0,0,1,174.9,352.545Zm-14.888,8.2c-1,.69-.92.991-1.53,1.539-6.429,3.667-10.356,5.8-16.633,9.779.279-.476,1.035-1.142,1.461-1.676,1.4-.762,2.769-1.587,4.145-2.419,1.4-.8,2.788-1.633,4.176-2.463C154.409,363.843,157.182,362.184,160.014,360.742Zm-20.728,12.831-6.077,3.743-12.569-14.6a227.854,227.854,0,0,1,30.717-29.748c.077.114-.151.549.574-.012-1.917,1.8-4.428,3.848-7.036,6.313l-4.123,3.733c-1.411,1.279-2.886,2.534-4.256,3.931-2.771,2.747-5.6,5.406-8.049,7.983-2.4,2.647-4.546,5.059-6.193,7.01-.367.357-.76.76-1.167,1.191L132.882,376.8C135.756,375.136,139.224,372.811,139.286,373.573Zm26.446-51.705a68.456,68.456,0,0,1,6.774-5.377c2.758-1.976,5.808-4.228,8.968-6.251l.085.572c-2.705,1.735-5.449,3.855-8.166,5.782C170.693,318.551,168.027,320.333,165.732,321.868Zm-4.443,41.671c.092.23-1.262.982-2.593,1.725C158.484,365.077,160.382,364.129,161.289,363.539ZM337.349,230.3a24.478,24.478,0,0,1,3.422-1.456C340.741,229.115,338.067,230.135,337.349,230.3Zm65.105-26.617a26.084,26.084,0,0,1-4.06,1.4A26.04,26.04,0,0,1,402.454,203.686ZM155.86,389.008c-2.466,2.019-5.75,4.464-9.109,6.948-3.342,2.5-6.753,5.044-9.5,7.232-.39.793,3.313-2.041,1.632-.341-4.945,3.875-11.039,8.422-15.53,12.092a115.28,115.28,0,0,0,13.272-9.319c-5.781,4.745-13.157,10.457-20.927,16.384l11.125,15.424c7.531-4.979,15.437-10.108,22.728-14.84-5.493,4.2-12.642,9.152-20.692,14.515,13.729-8.862,30.219-19.571,43.652-28.859.8-.553,2.112-1.665,3.015-2.271,4.763-3.179,10.2-6.619,15.364-9.9s10.045-6.451,13.651-9.206c3.382-1.9,7.284-4.551,11.347-7.261s8.256-5.547,12.166-7.928c2.139-1.3,4.1-2.133,6.2-3.477,3.744-2.417,5.617-4.458,9.164-6.579a25.3,25.3,0,0,1,3.666-1.733c.225-1.312,10.774-7.546,16.934-11.465,1.592-.793.314.12,1.087-.136,3.385-2.181,6.046-3.477,8.808-5.332,1.138-.459-2.827,2.082-5.137,3.56-4.472,2.887-9.678,6.114-14.914,9.548-5.244,3.417-10.59,6.872-15.448,9.959C203.679,388.361,165.8,414.1,128.1,439.32L114.305,420.2C128.106,409.584,142,399.042,155.86,389.008ZM267.4,396.142A430.107,430.107,0,0,1,299.508,366.2c12.15-10.354,25.18-20.645,37.163-29.976a17.2,17.2,0,0,0-3.848,2.619,31.629,31.629,0,0,1-4.363,3.209,96.581,96.581,0,0,1,8.174-6.591c3.07-2.342,5.935-4.586,6.992-5.978,9.887-7.277,17.72-13.223,27.906-20.243,2.74-1.729-1.716,1.323-.916,1.148a90.3,90.3,0,0,0,11.357-8.456c2.3-1.535,2.026-.83,4.1-2.161,3.011-1.907,4.814-3.9,7.933-6.1,2.952-2.091,8.521-5.581,12.676-8.245l8.472-5.487,10.559-6.668-11-21.777-1.572.65c-9.5,3.911-19.4,8.281-24.36,10.157-1.748.66-3.387,1.082-5.082,1.722-3.781,1.416-14.04,5.652-18.753,7.79-2.424,1.121-4.031,2.208-6.274,3.257-5.213,2.388-11.878,5.177-18.711,8.25-2.867,1.277-5.512,2.8-8.449,4.205l-4.427,2.149q-2.234,1.067-4.46,2.226l-9.012,4.627c-3.05,1.522-6.03,3.214-9.065,4.842-3.02,1.653-6.08,3.272-9.094,4.966l-9,5.148c-3,1.712-6,3.413-8.914,5.193l-8.748,5.24q-2.17,1.3-4.323,2.591l-4.228,2.63-12.6,7.884c-4.253,2.691-8.5,5.5-12.788,8.281-8.6,5.55-17.125,11.331-25.471,16.939,7.593-4.452,16.691-10.464,24.839-15.682,4.339-2.791,9.386-6.27,14.539-9.482,2.866-1.75.675.191,1.652-.268,7.125-4.411,13.1-7.776,15.162-10.105,3.505-1.986,4.912-3.049,9.033-5.462,3.023-1.642-1.353,1.367.594.47l6.813-4.087,7.518-4.318,7.982-4.571,8.4-4.573c5.631-3.145,11.515-6.07,17.232-9.029,2.847-1.5,5.742-2.825,8.54-4.206,2.81-1.352,5.552-2.717,8.232-3.968,4.958-2.279,9.39-4.355,11.343-5.953,2.054-.849.6.386,2.8-.516,21.183-9.06,41.339-17.338,61.19-25.663l9.709,19.217c-16.43,10.327-32.474,20.9-48.76,31.851.483-.82,2.877-2.26,4.447-3.4,7.82-5.73,20.961-14.865,32.345-21.893q5.606-3.415,11.6-7.162l-9.076-17.964c-14.488,5.926-30.309,12.52-46.181,19.3-12.566,5.42-27.638,11.863-38.974,17.585l-4.711,2.319c-1.6.842-3.125,1.657-4.213,2.27-2.116,1.189-2.964,2.044-4.979,3.2-1.319.754-2.928,1.488-4.3,2.164a9.326,9.326,0,0,0-2.844,1.885c2.451-1.358,5.15-2.661,7.891-3.98l8.212-3.956a151.785,151.785,0,0,0,13.892-7.022l8.973-4.027c2.9-1.287,5.725-2.5,8.514-3.48a38.434,38.434,0,0,0,4.546-2.257c1.572-.568,3.562-1.337,5.8-2.231s4.717-1.861,7.265-2.9c5.1-2.088,10.466-4.356,14.7-6.213,1.606-.711,3.486-1.72,5.121-2.4,1.967-.815,4.249-1.534,6.215-2.354,2.387-1,4.32-2.076,6.814-3.153,1.372-.592,2.532-.875,3.95-1.46,1.35-.555,2.531-1.231,3.973-1.847l.787-.335,8.007,15.847-11.814,7.591c-4.063,2.651-7.926,5.137-10.536,6.742a40.331,40.331,0,0,1-4.621,2.628,70.863,70.863,0,0,1-6.686,4.864l-8.9,5.966a70.694,70.694,0,0,0-6.98,3.979c-2.681,1.7-5.757,3.7-9.142,6.117-5.582,3.9-12.242,8.775-17.709,12.913-3.093,2.4-6.7,5.315-12.09,9.337-8.334,6.11-17.606,13.228-25.814,19.842-14.98,12.093-29.464,25.063-43.243,38.441a562.617,562.617,0,0,0-38.649,41.07c-.827.395-3.082,2.433-2.824,1.531,1.894-2.348,3.335-4.146,4.763-5.806L234,420.462c.492-.927-1.026.547-.353-.79-1.321,1.5-2.724,3.118-4.107,4.8l-2.11,2.514c-.689.844-1.378,1.684-2.055,2.511-2.736,3.289-5.209,6.364-7.217,8.375-.4-1.8-3.466.413-6.01,2.477-.826-1.76-.924-4.293-3.391-3.315-.572.222-1.655,1.6-1.846,1.283a3.758,3.758,0,0,1,.431-1.923c.371-.906.875-1.985,1.276-2.9,6.9-10.289,14.562-19.121,22.624-27.967,8.595-9.319,17.2-18.587,26.674-27.705,3.989-3.825,8.4-7.742,12.691-11.636,9.464-8.609,18.5-16.606,29.38-25.412,3.145-2.571,6.487-4.952,9.631-7.448C333.925,314.033,360,294.76,386.2,277.346c9.643-6.462,20.123-13.005,28.445-18.4l1.63-1.049,5.209,10.31c-6.508,2.724-13.313,5.221-19.732,7.9-23.551,9.835-51.741,21.37-73.536,32.783-2.826,1.466-5.73,3.179-8.649,4.682-27.248,14.537-54.416,30.929-78.5,46.921-1.674,1.1-2.87,2.078-4.6,3.232-6.129,4.135-13.21,8.47-18.9,12.68-16.738,10.383-32.389,22-49.346,32.949-4.986,3.217-8.539,5.366-13.229,8.615-9.163,6.316-18.765,12.741-28.387,19.139l-10.676-14.8,29.644-22.585c4.461-2.838,16.16-11.238,24.234-17.348,1.454-1.107,2.558-2.143,3.921-3.129,4.218-3.07,8.531-6.141,12.9-9.183,4.383-3.018,8.789-6.045,13.138-9.106,4.814-3.312,9.67-6.5,14.323-9.49,4.676-2.955,9.169-5.683,13.206-8.159,20.455-14.136,42.423-27.572,63.04-40.234.309-.623-2.46,1.187-4.224,2.205-1.642.7,1.778-1.553-.08-.768l-26.089,15.471c-3.459,2.031-7.24,4.454-11.175,7s-7.972,5.315-12.027,7.9c-7.5,4.752-14.587,9.283-21.007,13.524-4.009,2.67-7.958,5.458-11.87,8.094s-7.733,5.2-11.44,7.508c-1.461.634-1.483-.044-5.177,2.622,5.734-4.557,11.592-8.018,18.189-12.357,28.477-19.048,64.247-42.354,95.124-60.129,2.07-1.44-1.586.34,2.573-2.139,2.866-1.779.831-.165,1.1-.045,8.738-5.253,17.326-10.257,25.875-15.115l12.8-7.222,12.739-7.254c1.654-.942,3.214-2.027,4.791-2.934.983-.567,2.016-.907,3.222-1.574,3.267-1.808,7.433-4.174,11.97-6.756l6.312,17.617-4.395,1.027c-1.491.353-2.971.645-4.553,1.138-3.119.91-6.221,1.738-9.191,2.631-5.955,1.883-11.3,3.415-14.826,4.432-1.2.734-5.112,1.925-7.436,2.847-2.583.864-1.091-.344-5.071,1.28-2.962,1.012-1.439.825-2.318,1.284-4.023,1.371-7.442,3.082-9.64,3.315-3.024,1.58-6.387,2.644-11.335,4.477-5.612,2.044-11.46,4.455-17.436,6.868-5.988,2.384-12.026,4.992-18.035,7.428-22.8,9.4-43.1,18.575-64.315,28.392.26-.426-.677-.077-1.639.285,4.149-2.61,10.2-5.051,15.391-7.493,7.4-3.51,15.619-7.057,23.8-10.7,4.091-1.817,8.228-3.536,12.252-5.28,4.036-1.721,7.961-3.467,11.758-5.036,2.466-1.036,4.972-2.248,7.3-3.221,4.244-1.769,7.965-3.1,11.8-4.681,2.076-.866,4-1.864,6.22-2.783,7.587-3.194,14.975-5.805,22.19-8.512l10.792-3.9,10.727-4.008c-5.727,1.562-11.578,3.769-17.614,5.841,4.169-1.62,8.645-3.344,13.3-5.011,4.661-1.6,9.475-3.32,14.308-4.872l7.238-2.273c1.2-.367,2.4-.776,3.584-1.106l3.534-.987,3.479-.98c1.145-.316,2.3-.682,3.382-.9l6.392-1.491-4.965-13.858-5.329,3.092a60.849,60.849,0,0,0,5.5-2.788l4.732,13.209a72.093,72.093,0,0,0-7.146,1.844c-3.309.848-6.72,1.792-10.181,2.719L353.6,274.216c-3.582,1.122-7.2,2.4-10.858,3.62s-7.339,2.541-11.038,3.882c-14.817,5.279-29.839,11.237-44.317,17.1-21.63,8.8-44.9,18.976-64.635,28.162-23.585,10.984-46.714,22.466-69.726,35.5-7.16,3.913-14.059,8.35-21.166,12.691l-9.3-10.8a263.034,263.034,0,0,1,27.349-27.191l7.27-6.059c1.195-1.024,2.44-1.962,3.672-2.912l3.689-2.838c4.86-3.847,9.888-7.268,14.749-10.747,2.827-1.958,5.54-3.708,8.13-5.448l3.834-2.55c1.265-.833,2.54-1.609,3.8-2.408l7.581-4.777c2.565-1.6,5.232-3.155,8.01-4.838,2.665-1.6,5.63-3.163,8.554-4.788l10.63-6.071,11.912-6.6c4.124-2.191,8.319-4.438,12.491-6.6,4.193-2.118,8.342-4.2,12.336-6.143l11.268-5.325c3.772-1.76,7.6-3.474,11.5-5.248,7.806-3.475,15.164-7.07,22.987-10.347,22.08-9.336,48.125-19.084,70.481-27.022,15.346-5.482,34.243-12.2,43.763-13.269-2.528,1.768-3.507,2.781.825,2.128-.884.444-3.818,1.221-4.681,1.675-.07.508,4.609-1.233,4.549-.718-5.4,2.166,2.282.881-2.631,3.137-.469.611,2.071-.21,2.2.122-.759.774-3.624,1.885-4.768,2.732.57.108,2.126-.22,2.2.114.054.259-1.945,1.115-2.416,1.708-.868,1.089-.169,1.52-3.68,3.15,3.881-.419,3.408,1.2-2.046,3.543-1.241.9.808.358.439,1.053a25.556,25.556,0,0,1-5.77,2.508c.218.377,3.931-.987,5.064-1.069-.86,1.049-9.569,3.559-12.582,4.777,6.372-1.755,13.226-3.676,13.991-2.572-1.565,1.019-5.528,2.308-4.669,2.691a21.935,21.935,0,0,0-6.342,3.11c-33.14,11.423-64.32,22.9-97.348,37.336-18.63,8.177-36.262,16.57-53.312,25.487s-33.52,18.364-49.619,28.823c-12.494,8.133-24.3,17.117-33.325,23.89-1.684,1.26-3.071,2.224-4.61,3.427-5.174,3.972-10.376,8.961-15.27,13.557l-4.394,4.305a23.2,23.2,0,0,0-3.189,3.67c-2.059,2.316-4.134,4.544-6.206,6.737l-18.674-21.686,8.856-5.22c2.944-1.727,5.841-3.6,8.8-5.336,1.558-.942,3.022-2.065,4.869-3.178,8.354-5.162,17.784-9.706,26.823-14.55l14.538-7.526c2.395-1.268,4.827-2.463,7.3-3.675l7.562-3.671c3.071-1.458,6.21-2.858,9.488-4.3,8.05-3.613,16.241-7.421,24.5-11.009l12.317-5.437,12.184-5.24c4.347-1.9,8.979-3.843,13.4-5.724s8.633-3.724,12.236-5.206c3.91-1.624,8.619-3.294,12.614-4.978,1.446-.607,2.7-1.307,4.038-1.824,3.138-1.234,6.739-2.593,10.355-3.953l5.379-2.019,5.1-1.859,9.679-3.534,10.236-3.5,4.141-1.42,4.237-1.362,8.289-2.647c2.742-.8,5.4-1.53,7.821-2.2l3.465-.928,3.312-.686c2.069-.411,3.807-.635,5.732-.984l9.835,27.452-.722.374c-5.02,2.665-9.654,5.387-14.352,8.157s-9.473,5.562-14.7,8.5c-15.258,8.429-31.957,18.324-48.642,28.323-21.957,13.083-44.967,26.745-64.624,40.008-2.743,1.827-5.209,3.752-8.019,5.577-2.323,1.515-4.291,2.567-6.587,4.022-5.176,3.281-10.2,6.989-15.5,10.522-5.1,3.44-10.427,6.815-15.449,10.224C181.8,399.741,165.777,411.651,150,423.721c-2.105,1.56-.909.492-1.065.252-2.544,1.744-1.248,1.438-2.807,2.655-2.622,1.919-1.089.343-3.975,2.441L128.94,439.155l-14.212-19.7,68.4-45.642,16.9-11.249,16.733-11.023,8.25-5.444,8.218-5.329c5.454-3.525,10.783-7.076,16.157-10.445l13.523-8.278,13.837-8.267c9.333-5.49,18.835-11,28.621-16.276a639,639,0,0,1,60.855-28.949c11.663-4.84,22.453-9.174,33.509-13.862l13.9-5.826L427.193,275.7c-10,6.334-21.285,13.486-32.45,20.935s-22.264,15.107-32.065,22.2c-8.021,5.844-17.193,12.871-24.825,17.721-10.871,8-22.1,16.921-32.906,26.076s-21.194,18.535-30.489,27.356C271.906,392.375,267.408,396.768,267.4,396.142Zm-.717-71.469c1.791-1.055,4.627-2.507,4.239-2.725C269.076,323.024,266.828,324.254,266.685,324.673ZM188.893,373.9c4.836-3.017,12.441-8.157,16.357-11.065C200.276,366.274,192.287,371.126,188.893,373.9Zm-10.239,6.763c2.35-1.462,5.357-3.158,5.606-3.9A35.313,35.313,0,0,0,178.655,380.665Zm-21.9,14.627c.673-.295,3.076-1.814,3.05-2.083A16.911,16.911,0,0,0,156.751,395.292ZM124.215,417a8.766,8.766,0,0,0,2.535-1.768A10.766,10.766,0,0,0,124.215,417ZM355.3,265.267c5.389-3.052,11.778-6.186,14.387-8.414-7.582,4.291-15.057,8.287-21.969,12.235s-13.355,7.671-18.978,11.215C335.1,277.25,346.138,270.484,355.3,265.267Zm-29.734,16.768c-4.863,2.963-7.851,4.423-11.068,6.609A118.868,118.868,0,0,0,325.563,282.035Zm-25.8,15.238c-1.984,1.162-5.879,3.293-7.334,4.46C293.867,301,299.169,297.981,299.758,297.273Zm49.62-29.521c3.3-1.919,8.546-4.33,9.579-5.7-7.043,3.433-18.27,10.3-24.439,14.185C338.217,274.614,344.069,270.82,349.378,267.752Zm-143.9,86.812c1.636-.531,7.363-4.783,10.716-6.775C215.885,347.124,208.859,352.454,205.482,354.564Zm-9.19,89.325c-.38-.152-.119-1.349.6-3.241a47.632,47.632,0,0,1,3.476-6.707,165.955,165.955,0,0,1,10.478-14.708c6.669-8.633,14.737-17.762,21.486-24.882,5.823-6.223,12.6-13.4,17.937-18.516,1.669-1.584,3.33-2.978,5.02-4.535,2.744-2.486,5.229-5.171,8.162-7.808,11.82-10.8,24.91-21.681,37.784-31.979,3.412-2.7,6.629-5.562,10.146-8.273,12.953-10.135,26.358-20.233,40.157-30.131,13.532-9.71,27.724-19.1,40.948-27.837,3.364-2.2,6.7-4.438,10.086-6.615l10.163-6.538,11.3,22.368c-9.421,3.985-18.892,7.962-28.4,11.846-16.12,6.622-30.993,12.717-46.75,20.125-17.424,8.195-35.548,17.844-54.812,29.121-3.068,1.789-5.782,3.694-8.817,5.515-23.7,14.321-46.781,29.381-70.119,44.73-11.634,7.762-23.381,15.476-35.208,23.444l-36.026,24.143-13.664,9.1-18.293-25.361,30.727-23.35c12.391-9.382,24.968-18.4,37.835-27.294,12.9-8.845,26.013-17.665,39.586-26.535l7.906-5.29,8-5.259c24.664-16.026,50.382-31.209,75.24-45.985,5.3-3.116,11.481-6.866,17.936-10.577l19.207-11.088,25.254-14.24,9.034,25.215-3.842.884-1.918.432c-.644.15-1.259.26-1.953.474l-8.084,2.271c-2.7.781-5.423,1.688-8.11,2.511l-4.031,1.251c-1.34.415-2.681.89-4.016,1.326-3.837,1.288-7.547,2.355-11.308,3.695-2.7.989-5.239,2.085-7.94,3.087l-6.865,2.54-6.821,2.6c-4.539,1.727-9.08,3.4-13.592,5.19L290.609,304.3l-13.655,5.511c-4.594,1.824-9.165,3.853-13.8,5.832s-9.3,4.016-13.95,6.141l-14.054,6.33q-7.014,3.251-14.088,6.448l-3.314,1.515-3.257,1.587-6.431,3.2-12.561,6.3-12.025,6c-3.88,1.958-7.624,4.012-11.529,6.128-2.775,1.543-5.6,3.252-8.443,4.919-3.191,1.846-6.538,3.722-9.889,5.6-1.665.949-3.378,1.846-4.985,2.831l-4.776,2.906-8.47,5.208-17.829-20.7a262.2,262.2,0,0,1,29.813-29.168l6.833-5.7,6.926-5.424,3.456-2.687c1.148-.9,2.338-1.712,3.5-2.565q3.515-2.53,7.033-5c2.407-1.7,4.91-3.067,7.331-4.72,2.544-1.681,4.843-3.551,7.31-5.109,15.764-10.3,32.007-19.569,48.541-28.45,3.709-1.954,7.236-4.116,11.012-6.091,7.1-3.613,14.749-7.231,22.226-10.648l9.175-4.331c3.1-1.46,6.214-2.964,9.312-4.337,17.538-7.824,38.628-16.639,59.895-24.779s42.7-15.635,60.809-21.276c3.772-1.19,9.984-3.177,11.622-2.973-18.552,5.693-37.054,12.011-55.7,18.826-18.619,6.824-37.3,14.133-55.848,22.027-37.087,15.793-73.822,33.628-108.233,54.644-1.478.877-2.738,1.728-3.985,2.612s-2.5,1.753-3.952,2.706c-5.643,3.618-11.425,7.577-17.325,11.5-5.8,4.113-11.736,8.181-17.339,12.652l-4.034,3.126c-1.393,1.056-2.756,2.262-4.183,3.425l-4.331,3.6-2.212,1.84c-.74.62-1.452,1.3-2.183,1.948l-4.388,3.975-2.2,2-1.1,1-1.061,1.059c-2.814,2.841-5.642,5.616-8.3,8.435-1.241,1.758,2.424-1.657-1.095,2.069-4.011,4.25,1.408-1.858-1.087.393-1.837,1.871-3.712,3.869-5.617,5.956l16.757,19.46c3.821-2.3,7.766-4.808,11.727-7.319,1.96-1.278,4-2.475,6.03-3.648s4.038-2.335,6.026-3.444c20.863-11.58,45.455-24.053,70.028-35.317,14.877-6.874,29.828-13.713,43.76-19.284,6.232-2.709,12.922-5.927,18.5-8.4l2.252-.964c5.555-2.227,11.268-4.563,17.147-6.839l8.928-3.407c3.005-1.15,6.04-2.31,9.116-3.4l9.283-3.363c3.113-1.152,6.263-2.162,9.419-3.26,6.315-2.219,12.693-4.186,19.069-6.173l8.392-2.368c2.694-.669,5.245-1.2,7.756-1.794l-7.9-22.061c-23.355,13.085-46.27,26.245-66.76,38.392-2.26,1.315-4.636,2.585-6.863,3.921-29.318,17.183-60.332,36.463-87.674,54.99-14.666,9.986-29.788,19.693-43.963,29.8-18.834,13.432-37.919,28.237-56.247,42.344l16.36,22.681,4.684-3.12c8.013-5.329,16.142-11.05,22.768-15.459,5.657-3.784,11.294-7.266,16.781-10.923,14.21-9.5,28.684-19.283,42.145-28.373-23.081,14.664-46.031,30.58-70.117,46.425l-16.6,10.947-15.65-21.7c10.276-7.845,20.789-15.881,31.316-23.765,19.422-14.514,38.356-28.031,58.975-41.682l9.114-6.074,9.409-6.2c6.285-4.2,12.686-8.307,18.827-12.281,21.584-13.853,43.688-27.407,66.051-40.67s45.067-26.089,67.736-38.726l7.5,20.947-6.309,1.42c-1.029.2-2.171.571-3.26.863l-3.3.927c-4.381,1.154-8.85,2.68-13.276,4.056q-13.3,4.341-26.513,9.234c-4.4,1.572-8.776,3.259-13.142,4.93s-8.73,3.313-13.052,5.065l-12.96,5.171-12.839,5.32c-20.493,8.584-41.032,17.677-60.759,26.956-19.684,9.354-38.531,18.93-55.608,28.433-4.61,2.65-9.26,5.222-13.782,7.889-4.46,2.737-8.88,5.466-13.221,8.2l-15.072-17.5,5.885-6.743a323.261,323.261,0,0,1,37.229-32.905c18.86-14.548,38.816-27.229,59.575-39.172s42.493-22.845,65.318-33.21c41.837-18.94,89.684-37.265,130.843-49.655-5.11,1.926-10.5,3.294-15.7,5.169-1.876.682-3.36,1.406-5.245,2.089-11.872,4.326-25.06,8.695-38.532,13.775q-18.048,6.78-36.4,14.436-18.394,7.6-37.22,16.174c-4.086,1.86-8.185,3.712-12.116,5.605s-7.762,3.657-11.265,5.446c-14.336,7.085-28.272,13.954-40.55,20.943l-6.272,3.586c-2.216,1.274-4.372,2.633-6.091,3.712-2.017,1.283-3,2.217-5.3,3.7-2.4,1.509-5.009,3.062-7.417,4.6-1.969,1.275-3.831,2.677-5.774,3.955-10.948,7.437-22.938,15.7-34.218,24.573a289.268,289.268,0,0,0-30.055,27.729l-6.089,6.717,14.045,16.31c5.061-3.073,10.092-6.206,15.2-9.26l15.6-8.871,15.86-8.522,16.028-8.174c3.72-1.89,7.511-3.676,11.271-5.521,3.779-1.812,7.522-3.7,11.344-5.455,7.632-3.525,15.23-7.158,22.959-10.548l11.561-5.161,11.641-5.005c7.743-3.382,15.581-6.534,23.374-9.778,3.9-1.607,7.832-3.131,11.744-4.7s7.823-3.13,11.756-4.6l11.768-4.49L335.71,283.9c3.919-1.463,7.854-2.759,11.773-4.118l5.876-2.013,5.866-1.862,5.854-1.86,5.794-1.633c3.926-1.206,7.544-1.9,11.238-2.77l-6.934-19.354-16.4,9.237-8.042,4.536L342.8,268.65c-8.269,4.79-16.646,9.468-25.97,15-6.089,3.581-13.18,7.577-16.867,10.042-2.71,1.78-2.148,1.228-2.581,2.042-3.226.944-14.608,8.136-24.134,14-14.595,8.823-31.632,19.615-48.727,30.771-17.108,11.138-34.177,22.8-49,33.082-6.154,4.221-11.929,8.486-17.659,12.68-5.677,4.251-11.3,8.455-16.94,12.774l-27.111,20.523,14.733,20.426c9.036-5.943,17.854-11.765,26.018-17.338,2.126-1.452,4.06-2.934,6.051-4.282,4.88-3.276,9.927-6.337,14.755-9.578l13.21-8.912,13.169-8.817,13.187-8.824,13.352-8.735c16.182-10.589,31.769-20.652,47.823-30.511C292.895,332.8,311,322.479,326.7,314.3l7.583-3.934,7.64-3.71c5.054-2.5,10.194-4.8,15.281-7.131,20.758-9.388,43.1-18.321,65.748-27.72l-8.7-17.222-10.122,6.393c-3.416,2.158-6.82,4.408-10.239,6.618-14.957,9.782-29.7,20.209-44.379,30.205,7.649-6.048,17.855-12.738,26.841-18.889,2.06-1.435,4.054-3.008,6.126-4.38,2.795-1.866,5.549-3.627,8.293-5.379,2.76-1.725,5.505-3.449,8.261-5.277,4.748-3.174,9.507-6.444,14.564-9.721l.283-.181,9.344,18.5c-11.788,5-25.458,10.438-38.707,16.022-15.747,6.628-28.908,12.312-44.846,19.861-4.876,2.235-9.48,4.9-14.028,7.142l-4.476,2.221-4.564,2.427-9.308,5.032c-3.08,1.762-6.129,3.55-9.088,5.295-2.953,1.76-5.833,3.427-8.49,5.16-5.571,3.116-9.982,5.761-14.361,8.482-4.354,2.788-8.687,5.626-14.146,9.039-3.3,2.036-6.611,4.219-9.946,6.392l-10.008,6.57c-6.659,4.385-13.189,8.9-19.434,13.107a101.065,101.065,0,0,0,10.259-6.341l6.953-4.615,7.095-4.611c4.78-3.081,9.622-6.294,14.647-9.429,19.469-12.36,40.025-24.454,59.55-34.843,3.105-1.74-.415.64,2.147-.6,2.866-1.556-1.355.083,1.052-1.189,3.176-1.763,1.951-.585,3.765-1.438,3.23-1.669,3.931-2.24,6.963-3.672,2.759-1.5-2.266.811.529-.742,3.011-1.408,5.608-2.691,8.257-3.994s5.343-2.635,8.624-4.012c-3.437,1.966-10.64,4.942-13.078,6.555,2.3-.818,9.5-4.592,13.618-6.407,3-1.41-.759-.058,2.215-1.53,15.922-7.21,32.273-13.986,48.665-20.745,3.522-1.5-.435.609,2.232-.407,2.522-1.114,3.835-2.126,6.272-3.222,2.768-1.245,7.478-3.041,11.908-4.837l-10-19.789-2.082,1.306c-12.066,7.556-26.239,16.76-38.32,25.025l-5.243,3.613-5.376,3.813-11.693,8.22c-3.3,2.358.559-1.084-3.114,1.613-5.733,3.867-3.1,2.811-5.905,4.9-3.056,2.134.4-.561-1.072.326-6.99,5.073-15.389,11.2-22.783,17a10.075,10.075,0,0,0-2.817,2.795,642.816,642.816,0,0,0-66.63,57.367c-6.3,6.241-12.38,12.723-18.2,19.074-4.816,5.241-10.221,10.945-14.962,16.9-1.393,1.719-2.646,3.472-3.917,5.163l-3.753,5.208A139.389,139.389,0,0,0,196.292,443.889Z" transform="translate(-111.952 -196.793)" fill="#fcd2a2" opacity="0.39"/>
        <path id="Path_268" data-name="Path 268" d="M420.122,390.621c-1.3.831-2.6,1.713-2.485,1.928C418.91,391.8,420.366,390.909,420.122,390.621ZM289.385,426.195c.915.129-3.72,2.8-3.678,2.289C286.939,427.716,287.671,427.153,289.385,426.195Zm-36.138,79.477c3.725-4.849,9.358-10.633,14.751-16.231,4.151-4.254,7.485-7.964,13.2-13.216-4,4.12-8.714,9.067-13.577,14.167ZM283,474.547a107.076,107.076,0,0,1,8.1-7.753C289.614,468.574,285.987,471.69,283,474.547Zm50.365-43.906a50.929,50.929,0,0,1,5.723-4.9c2.48-1.885,5.219-3.891,7.338-5.56-1.418,1.294-3.736,3.194-6.179,5.118S335.271,429.228,333.363,430.64ZM439.7,373.913c-4.14,2.205-15.225,6.47-20.372,8.592C425.79,379.715,432.045,376.968,439.7,373.913ZM363.85,405.2a13.681,13.681,0,0,1,2.975-2.246A18.528,18.528,0,0,1,363.85,405.2Zm-152.93,64.234c-1.532,1.308-5.815,4.221-7.495,5.3-.243-.085.876-.851.413-.828-.356,0-3.071,2.189-3.53,2.281,2.138-2.056,6.915-4.853,10.478-7.513.54.006-2.143,1.622-2.449,2.052A17.47,17.47,0,0,0,210.919,469.439Zm80.854-61.323c-2.807,1.1-3.9,1.789-6.706,2.895-1,.443-1.137.384-.553.137A72.784,72.784,0,0,1,291.773,408.116Zm-77.566,37.851c-.332.529-3.033,1.781-5.395,2.954a6.639,6.639,0,0,1,1.052-1.21C212.8,446.141,213.372,445.953,214.207,445.967Zm1.607-1.278,2.705-1.328c-.473.676,1.788-.485,3.259-1.116-1.069.69-3.372,1.764-4.863,2.586C216.3,444.822,216.775,444.556,215.813,444.689Zm-11.832,6.139c-.543.562-.542.69.027.677-1.324.769-2.851,1.6-4.8,2.582.371-.493-.565-.066-.562-.3A54.65,54.65,0,0,1,203.981,450.828Zm-14.888,8.2c-1,.69-.92.991-1.531,1.539-6.428,3.667-10.355,5.8-16.632,9.779.279-.476,1.035-1.142,1.461-1.676,1.4-.762,2.769-1.587,4.145-2.419,1.4-.8,2.788-1.633,4.176-2.463C183.487,462.126,186.26,460.467,189.092,459.025Zm-20.728,12.831-6.077,3.743L149.718,461a227.852,227.852,0,0,1,30.717-29.748c.077.114-.152.549.574-.012-1.918,1.8-4.428,3.848-7.036,6.313l-4.123,3.733c-1.411,1.279-2.886,2.534-4.256,3.931-2.772,2.747-5.6,5.405-8.049,7.983-2.4,2.647-4.546,5.059-6.193,7.01-.367.357-.76.76-1.167,1.191l11.775,13.674C164.834,473.419,168.3,471.094,168.364,471.856Zm26.446-51.705a68.461,68.461,0,0,1,6.774-5.377c2.758-1.976,5.808-4.228,8.968-6.251l.085.572c-2.7,1.735-5.449,3.855-8.166,5.782C199.771,416.834,197.105,418.616,194.81,420.151Zm-4.443,41.671c.093.23-1.262.982-2.592,1.725C187.562,463.36,189.46,462.412,190.367,461.822Zm176.06-133.235a24.509,24.509,0,0,1,3.421-1.456C369.819,327.4,367.145,328.418,366.427,328.587Zm65.105-26.617a26.122,26.122,0,0,1-4.06,1.4A26.045,26.045,0,0,1,431.532,301.969Zm-246.6,185.322c-2.466,2.019-5.75,4.464-9.108,6.948-3.343,2.5-6.753,5.044-9.5,7.232-.39.793,3.313-2.041,1.632-.341-4.945,3.875-11.039,8.422-15.53,12.092A115.385,115.385,0,0,0,165.7,503.9c-5.781,4.745-13.157,10.457-20.928,16.384L155.9,535.711c7.531-4.979,15.437-10.108,22.728-14.84-5.493,4.2-12.642,9.152-20.692,14.515,13.729-8.862,30.219-19.571,43.652-28.859.8-.553,2.112-1.665,3.015-2.271,4.763-3.179,10.2-6.619,15.364-9.895s10.045-6.452,13.651-9.207c3.382-1.9,7.284-4.551,11.347-7.261s8.256-5.547,12.166-7.928c2.139-1.3,4.1-2.133,6.2-3.477,3.744-2.417,5.617-4.458,9.164-6.579a25.307,25.307,0,0,1,3.666-1.733c.225-1.312,10.774-7.546,16.934-11.465,1.592-.793.314.12,1.086-.136,3.386-2.181,6.047-3.477,8.809-5.332,1.138-.459-2.827,2.082-5.137,3.56-4.472,2.887-9.678,6.114-14.914,9.548-5.244,3.417-10.59,6.872-15.448,9.959-34.732,22.333-72.607,48.075-110.315,73.292l-13.79-19.119C157.184,507.867,171.074,497.325,184.937,487.291Zm111.542,7.134a430.093,430.093,0,0,1,32.106-29.939c12.15-10.354,25.18-20.645,37.162-29.977a17.222,17.222,0,0,0-3.847,2.619,31.63,31.63,0,0,1-4.363,3.209,96.556,96.556,0,0,1,8.174-6.591c3.07-2.342,5.935-4.586,6.992-5.978,9.887-7.277,17.72-13.223,27.906-20.243,2.74-1.729-1.716,1.323-.916,1.148a90.3,90.3,0,0,0,11.357-8.456c2.3-1.535,2.026-.83,4.1-2.161,3.011-1.907,4.813-3.9,7.932-6.1,2.953-2.091,8.522-5.581,12.677-8.245l8.472-5.487,10.558-6.668-11-21.777-1.572.65c-9.5,3.911-19.4,8.281-24.36,10.157-1.749.66-3.387,1.082-5.082,1.722-3.782,1.416-14.04,5.652-18.753,7.79-2.424,1.121-4.031,2.208-6.274,3.257-5.213,2.388-11.878,5.177-18.711,8.25-2.867,1.277-5.512,2.8-8.449,4.205l-4.427,2.149q-2.234,1.067-4.46,2.226l-9.012,4.627c-3.05,1.522-6.03,3.214-9.065,4.842-3.02,1.653-6.08,3.272-9.094,4.966l-9,5.148c-3,1.712-6,3.414-8.914,5.193l-8.748,5.24q-2.17,1.3-4.323,2.591l-4.228,2.63-12.6,7.884c-4.253,2.691-8.5,5.5-12.788,8.281-8.6,5.55-17.125,11.331-25.472,16.938,7.593-4.452,16.692-10.464,24.839-15.682,4.339-2.791,9.386-6.27,14.539-9.482,2.866-1.75.675.19,1.652-.268,7.125-4.411,13.1-7.776,15.162-10.105,3.505-1.986,4.912-3.049,9.033-5.462,3.022-1.642-1.353,1.367.594.47l6.813-4.088,7.517-4.318,7.982-4.571,8.4-4.573c5.63-3.145,11.515-6.07,17.231-9.028,2.848-1.5,5.743-2.825,8.54-4.206,2.811-1.353,5.552-2.717,8.233-3.968,4.958-2.279,9.39-4.355,11.343-5.953,2.054-.849.6.386,2.8-.516,21.183-9.06,41.339-17.338,61.19-25.663l9.709,19.217c-16.43,10.327-32.474,20.9-48.76,31.851.483-.82,2.877-2.26,4.447-3.4,7.82-5.73,20.961-14.865,32.345-21.893q5.606-3.415,11.6-7.162l-9.076-17.964c-14.487,5.926-30.31,12.52-46.181,19.3-12.566,5.42-27.638,11.863-38.974,17.585l-4.712,2.319c-1.6.842-3.124,1.657-4.212,2.27-2.116,1.189-2.964,2.044-4.979,3.2-1.319.754-2.928,1.488-4.3,2.163a9.328,9.328,0,0,0-2.844,1.885c2.451-1.358,5.15-2.661,7.891-3.979l8.212-3.955a152,152,0,0,0,13.892-7.023l8.973-4.027c2.9-1.287,5.725-2.5,8.514-3.48a38.5,38.5,0,0,0,4.546-2.257c1.572-.568,3.562-1.337,5.8-2.231s4.717-1.86,7.265-2.9c5.1-2.088,10.466-4.356,14.7-6.213,1.607-.711,3.486-1.72,5.121-2.4,1.968-.815,4.249-1.534,6.216-2.354,2.387-1,4.32-2.076,6.814-3.153,1.372-.592,2.532-.875,3.951-1.46,1.35-.555,2.531-1.231,3.973-1.847l.787-.335,8.007,15.847-11.814,7.591c-4.063,2.651-7.926,5.137-10.536,6.742a40.34,40.34,0,0,1-4.621,2.628,70.853,70.853,0,0,1-6.686,4.864l-8.9,5.966a70.575,70.575,0,0,0-6.98,3.98c-2.681,1.7-5.757,3.7-9.142,6.117-5.582,3.9-12.242,8.775-17.709,12.913-3.093,2.4-6.7,5.315-12.09,9.337-8.334,6.11-17.606,13.228-25.814,19.842-14.98,12.093-29.464,25.063-43.243,38.441a562.41,562.41,0,0,0-38.649,41.07c-.827.395-3.082,2.433-2.824,1.531,1.894-2.348,3.335-4.146,4.763-5.806l4.281-5.183c.492-.927-1.026.547-.353-.79-1.321,1.5-2.724,3.118-4.107,4.8l-2.11,2.514-2.055,2.511c-2.736,3.289-5.209,6.364-7.217,8.375-.4-1.8-3.466.413-6.011,2.477-.825-1.76-.923-4.293-3.39-3.315-.572.222-1.655,1.6-1.846,1.283a3.759,3.759,0,0,1,.431-1.923c.371-.906.875-1.985,1.276-2.9,6.9-10.288,14.562-19.121,22.624-27.967,8.595-9.319,17.2-18.587,26.674-27.705,3.989-3.825,8.4-7.742,12.691-11.635,9.464-8.61,18.5-16.607,29.38-25.413,3.145-2.571,6.487-4.952,9.631-7.448,24.31-19.285,50.387-38.558,76.588-55.972,9.643-6.462,20.123-13.005,28.445-18.4l1.63-1.049,5.209,10.31c-6.508,2.724-13.313,5.221-19.732,7.9-23.551,9.835-51.742,21.37-73.536,32.783-2.826,1.466-5.73,3.179-8.649,4.682-27.248,14.537-54.416,30.929-78.5,46.921-1.673,1.1-2.869,2.079-4.6,3.232-6.128,4.135-13.209,8.47-18.9,12.681-16.737,10.383-32.388,22-49.345,32.949-4.986,3.217-8.539,5.366-13.23,8.615-9.163,6.316-18.764,12.741-28.386,19.139l-10.676-14.8,29.644-22.585c4.461-2.838,16.159-11.238,24.234-17.348,1.454-1.107,2.558-2.143,3.921-3.129,4.218-3.071,8.531-6.141,12.9-9.183,4.383-3.018,8.789-6.045,13.138-9.106,4.814-3.312,9.67-6.5,14.323-9.49,4.675-2.955,9.169-5.683,13.206-8.159,20.455-14.136,42.423-27.572,63.04-40.234.308-.623-2.46,1.187-4.225,2.205-1.641.7,1.779-1.553-.079-.768L289.02,418.266c-3.459,2.031-7.24,4.454-11.175,7s-7.972,5.315-12.027,7.9c-7.5,4.752-14.587,9.283-21.008,13.524-4.009,2.671-7.958,5.458-11.87,8.094s-7.733,5.2-11.44,7.508c-1.461.634-1.483-.044-5.177,2.622,5.733-4.557,11.592-8.018,18.189-12.357,28.477-19.048,64.247-42.354,95.124-60.129,2.07-1.44-1.586.34,2.573-2.139,2.866-1.779.831-.165,1.1-.045,8.738-5.253,17.325-10.257,25.875-15.115l12.8-7.222,12.74-7.254c1.654-.942,3.214-2.027,4.791-2.934.983-.567,2.015-.907,3.222-1.574,3.267-1.808,7.433-4.174,11.97-6.756l6.312,17.617-4.395,1.027c-1.491.353-2.971.645-4.553,1.138-3.119.91-6.221,1.738-9.192,2.631-5.954,1.883-11.3,3.415-14.825,4.432-1.2.734-5.112,1.925-7.436,2.847-2.583.864-1.091-.344-5.071,1.28-2.962,1.012-1.439.825-2.318,1.284-4.023,1.371-7.442,3.082-9.64,3.315-3.024,1.58-6.387,2.644-11.335,4.477-5.612,2.044-11.46,4.455-17.436,6.868-5.988,2.384-12.026,4.992-18.035,7.428-22.806,9.4-43.1,18.575-64.315,28.392.259-.426-.678-.077-1.639.285,4.148-2.61,10.2-5.051,15.391-7.493,7.4-3.51,15.619-7.057,23.8-10.7,4.091-1.817,8.228-3.536,12.252-5.28,4.035-1.721,7.961-3.467,11.758-5.036,2.465-1.036,4.972-2.248,7.3-3.221,4.244-1.769,7.964-3.1,11.8-4.681,2.076-.866,4-1.864,6.22-2.783,7.587-3.194,14.975-5.806,22.19-8.512l10.791-3.9L373.06,376.8c-5.727,1.562-11.578,3.769-17.614,5.841,4.169-1.62,8.645-3.344,13.3-5.011,4.662-1.6,9.476-3.32,14.309-4.872l7.238-2.273c1.2-.367,2.4-.776,3.584-1.106l3.534-.987,3.479-.98c1.145-.316,2.3-.682,3.382-.9l6.392-1.491-4.965-13.858-5.329,3.092a61.088,61.088,0,0,0,5.5-2.788l4.732,13.209a72.127,72.127,0,0,0-7.146,1.844c-3.309.848-6.721,1.792-10.181,2.719L382.679,372.5c-3.582,1.122-7.2,2.4-10.858,3.62s-7.339,2.541-11.038,3.882c-14.817,5.279-29.839,11.237-44.318,17.1-21.629,8.8-44.9,18.976-64.634,28.162-23.585,10.984-46.714,22.466-69.726,35.5-7.16,3.913-14.059,8.35-21.166,12.69l-9.3-10.8a263.047,263.047,0,0,1,27.349-27.191l7.27-6.059c1.194-1.024,2.439-1.962,3.672-2.912l3.689-2.838c4.86-3.847,9.888-7.268,14.749-10.747,2.827-1.958,5.54-3.708,8.13-5.448l3.834-2.55c1.264-.833,2.54-1.609,3.8-2.408l7.581-4.777c2.565-1.6,5.232-3.155,8.01-4.838,2.665-1.6,5.63-3.163,8.554-4.788l10.63-6.071,11.912-6.6c4.124-2.191,8.318-4.438,12.491-6.6,4.193-2.118,8.342-4.2,12.335-6.143l11.269-5.325c3.772-1.76,7.6-3.474,11.5-5.248,7.806-3.475,15.164-7.07,22.987-10.347,22.079-9.335,48.125-19.084,70.481-27.022,15.346-5.482,34.243-12.2,43.763-13.269-2.528,1.768-3.507,2.781.825,2.128-.884.444-3.818,1.221-4.681,1.676-.07.508,4.609-1.233,4.549-.718-5.4,2.166,2.282.881-2.631,3.137-.469.611,2.071-.21,2.2.122-.759.774-3.624,1.885-4.768,2.732.57.108,2.126-.22,2.2.114.054.259-1.945,1.115-2.416,1.708-.868,1.089-.169,1.52-3.68,3.149,3.88-.419,3.408,1.2-2.046,3.543-1.242.9.808.358.439,1.053a25.555,25.555,0,0,1-5.77,2.508c.218.377,3.931-.987,5.064-1.069-.86,1.049-9.569,3.559-12.583,4.777,6.373-1.755,13.227-3.676,13.992-2.572-1.565,1.019-5.528,2.308-4.669,2.69a21.937,21.937,0,0,0-6.342,3.11c-33.14,11.423-64.32,22.9-97.348,37.336-18.63,8.177-36.263,16.57-53.312,25.487s-33.52,18.364-49.619,28.823c-12.494,8.133-24.3,17.117-33.325,23.89-1.685,1.26-3.071,2.224-4.61,3.427-5.174,3.972-10.376,8.961-15.27,13.557l-4.394,4.305a23.155,23.155,0,0,0-3.188,3.67c-2.059,2.316-4.134,4.544-6.206,6.737L149.39,455.112l8.856-5.22c2.944-1.727,5.841-3.6,8.8-5.336,1.558-.942,3.022-2.065,4.869-3.178,8.354-5.162,17.784-9.706,26.823-14.55L213.28,419.3c2.395-1.268,4.827-2.463,7.3-3.675l7.562-3.67c3.072-1.459,6.21-2.859,9.488-4.305,8.049-3.613,16.241-7.421,24.5-11.009l12.318-5.437,12.184-5.241c4.347-1.9,8.979-3.842,13.4-5.723s8.633-3.724,12.236-5.206c3.909-1.624,8.618-3.294,12.614-4.978,1.446-.607,2.7-1.306,4.038-1.824,3.137-1.234,6.739-2.593,10.355-3.953l5.379-2.019,5.1-1.859,9.678-3.534,10.237-3.5,4.14-1.42,4.238-1.362,8.289-2.647c2.742-.8,5.4-1.53,7.82-2.2l3.466-.928,3.312-.686c2.069-.411,3.807-.635,5.732-.984L416.5,370.6l-.722.374c-5.021,2.665-9.654,5.387-14.352,8.157s-9.473,5.562-14.7,8.5c-15.259,8.429-31.957,18.324-48.642,28.323-21.957,13.083-44.966,26.745-64.624,40.008-2.743,1.827-5.21,3.752-8.019,5.577-2.323,1.515-4.291,2.567-6.587,4.022-5.176,3.281-10.195,6.989-15.5,10.523-5.1,3.44-10.427,6.815-15.449,10.224-17.029,11.727-33.052,23.637-48.825,35.707-2.105,1.56-.909.492-1.065.252-2.544,1.744-1.248,1.438-2.807,2.655-2.622,1.919-1.09.343-3.975,2.441l-13.218,10.085-14.211-19.7,68.4-45.642,16.9-11.249,16.732-11.023,8.251-5.444,8.218-5.329c5.454-3.525,10.782-7.076,16.157-10.445l13.523-8.278,13.837-8.267c9.332-5.49,18.835-11,28.621-16.276A638.976,638.976,0,0,1,395.3,366.831c11.664-4.84,22.453-9.175,33.51-13.862l13.9-5.826,13.559,26.837c-10,6.334-21.285,13.486-32.45,20.935s-22.265,15.107-32.065,22.2c-8.022,5.844-17.193,12.871-24.826,17.721-10.87,8-22.1,16.921-32.906,26.076s-21.193,18.535-30.488,27.356C300.984,490.658,296.485,495.051,296.479,494.425Zm-.717-71.469c1.791-1.055,4.627-2.507,4.239-2.725C298.154,421.307,295.906,422.537,295.763,422.956Zm-77.791,49.229c4.836-3.017,12.441-8.157,16.357-11.065C229.354,464.557,221.365,469.41,217.971,472.185Zm-10.239,6.763c2.349-1.462,5.357-3.159,5.606-3.9A35.28,35.28,0,0,0,207.733,478.948Zm-21.9,14.627c.673-.295,3.075-1.814,3.05-2.083A16.88,16.88,0,0,0,185.829,493.575Zm-32.535,21.707a8.748,8.748,0,0,0,2.534-1.768A10.777,10.777,0,0,0,153.293,515.282ZM384.375,363.549c5.389-3.051,11.777-6.185,14.387-8.413-7.583,4.291-15.057,8.287-21.969,12.235s-13.355,7.671-18.977,11.215C364.176,375.533,375.216,368.767,384.375,363.549Zm-29.734,16.769c-4.864,2.963-7.851,4.423-11.068,6.609A118.875,118.875,0,0,0,354.641,380.318Zm-25.8,15.238c-1.984,1.162-5.879,3.293-7.334,4.46C322.945,399.282,328.247,396.264,328.836,395.556Zm49.62-29.521c3.3-1.919,8.545-4.33,9.579-5.7-7.043,3.433-18.27,10.3-24.439,14.185C367.295,372.9,373.148,369.1,378.456,366.035Zm-143.9,86.812c1.636-.531,7.363-4.783,10.716-6.775C244.963,445.408,237.937,450.737,234.56,452.847Zm-9.191,89.325c-.379-.152-.118-1.349.6-3.241a47.631,47.631,0,0,1,3.476-6.707,165.935,165.935,0,0,1,10.478-14.708c6.669-8.633,14.737-17.762,21.485-24.882,5.824-6.223,12.6-13.4,17.938-18.516,1.669-1.584,3.33-2.978,5.02-4.535,2.744-2.486,5.229-5.171,8.162-7.808,11.82-10.8,24.91-21.681,37.784-31.979,3.412-2.7,6.629-5.562,10.145-8.273,12.953-10.135,26.359-20.233,40.158-30.131,13.532-9.71,27.724-19.1,40.948-27.837,3.364-2.2,6.7-4.438,10.086-6.615l10.163-6.538,11.3,22.368c-9.422,3.985-18.892,7.962-28.4,11.846-16.12,6.622-30.993,12.717-46.75,20.125-17.424,8.195-35.549,17.844-54.812,29.121-3.068,1.789-5.782,3.694-8.817,5.515-23.7,14.322-46.782,29.381-70.119,44.73-11.635,7.762-23.381,15.476-35.209,23.444l-36.025,24.143-13.664,9.1L141.03,515.435l30.727-23.35c12.391-9.382,24.968-18.4,37.835-27.295,12.9-8.844,26.013-17.664,39.585-26.534l7.906-5.29,8-5.259c24.664-16.026,50.382-31.209,75.239-45.985,5.3-3.116,11.482-6.866,17.937-10.577l19.207-11.088,25.254-14.24,9.034,25.216-3.843.883-1.918.432c-.644.15-1.259.26-1.953.474l-8.084,2.271c-2.7.781-5.423,1.688-8.111,2.51l-4.031,1.252c-1.34.415-2.681.89-4.016,1.326-3.837,1.288-7.547,2.355-11.309,3.695-2.7.989-5.238,2.085-7.939,3.087l-6.865,2.54-6.821,2.6c-4.539,1.727-9.08,3.4-13.592,5.191l-13.589,5.293L306.032,408.1c-4.594,1.824-9.165,3.853-13.8,5.832s-9.3,4.016-13.95,6.141l-14.054,6.33q-7.014,3.251-14.088,6.448l-3.314,1.515-3.257,1.587-6.431,3.2-12.561,6.3-12.026,6c-3.879,1.958-7.623,4.012-11.528,6.128-2.775,1.543-5.6,3.252-8.442,4.919-3.191,1.846-6.538,3.722-9.889,5.6-1.665.949-3.378,1.846-4.985,2.831l-4.777,2.906-8.469,5.208-17.829-20.7a262.047,262.047,0,0,1,29.813-29.168l6.833-5.7,6.926-5.424,3.456-2.687c1.148-.9,2.338-1.712,3.5-2.565q3.515-2.53,7.032-5c2.408-1.7,4.911-3.067,7.332-4.72,2.544-1.681,4.843-3.551,7.31-5.109,15.764-10.3,32.007-19.569,48.541-28.45,3.709-1.954,7.236-4.116,11.012-6.091,7.1-3.613,14.749-7.231,22.226-10.648l9.175-4.331c3.1-1.46,6.214-2.964,9.312-4.337,17.538-7.824,38.627-16.639,59.895-24.779s42.7-15.635,60.809-21.276c3.772-1.19,9.984-3.177,11.622-2.973-18.552,5.693-37.054,12.011-55.7,18.826-18.618,6.824-37.3,14.133-55.848,22.027-37.087,15.793-73.822,33.628-108.233,54.644-1.478.877-2.739,1.728-3.985,2.612s-2.5,1.753-3.952,2.706c-5.644,3.618-11.425,7.577-17.325,11.5-5.8,4.113-11.736,8.181-17.339,12.652l-4.034,3.126c-1.393,1.056-2.756,2.262-4.184,3.425l-4.331,3.6-2.212,1.841c-.74.62-1.452,1.3-2.183,1.948l-4.388,3.975-2.2,2-1.1,1-1.061,1.059c-2.814,2.841-5.642,5.616-8.3,8.435-1.242,1.758,2.423-1.657-1.095,2.069-4.011,4.25,1.408-1.858-1.087.393-1.837,1.87-3.712,3.869-5.617,5.956l16.757,19.46c3.821-2.3,7.766-4.808,11.727-7.32,1.96-1.278,4-2.475,6.03-3.648s4.038-2.335,6.026-3.444c20.863-11.58,45.455-24.053,70.028-35.317,14.877-6.874,29.828-13.713,43.76-19.284,6.232-2.709,12.922-5.927,18.5-8.4l2.251-.964c5.556-2.227,11.269-4.563,17.148-6.839l8.928-3.407c3.005-1.15,6.04-2.31,9.116-3.4l9.283-3.363c3.113-1.152,6.263-2.162,9.419-3.26,6.314-2.219,12.693-4.186,19.069-6.173l8.392-2.368c2.694-.669,5.245-1.2,7.755-1.794l-7.9-22.061c-23.354,13.085-46.269,26.246-66.76,38.393-2.259,1.314-4.635,2.584-6.863,3.92-29.317,17.183-60.331,36.463-87.673,54.99-14.666,9.986-29.788,19.693-43.963,29.8-18.834,13.433-37.92,28.237-56.247,42.344l16.36,22.681,4.684-3.12c8.013-5.329,16.142-11.05,22.768-15.459,5.656-3.784,11.294-7.266,16.781-10.923,14.21-9.5,28.684-19.283,42.145-28.373-23.081,14.663-46.031,30.58-70.117,46.425l-16.6,10.947-15.65-21.7c10.276-7.845,20.788-15.881,31.316-23.765,19.422-14.514,38.356-28.031,58.975-41.682l9.114-6.074,9.409-6.2c6.285-4.2,12.686-8.307,18.827-12.281,21.584-13.853,43.688-27.407,66.051-40.67s45.067-26.089,67.735-38.727l7.505,20.947-6.309,1.42c-1.029.2-2.171.571-3.26.863l-3.3.927c-4.381,1.154-8.85,2.681-13.276,4.056q-13.3,4.341-26.513,9.233c-4.4,1.572-8.776,3.259-13.142,4.93s-8.731,3.313-13.052,5.065l-12.96,5.171-12.839,5.32c-20.493,8.584-41.032,17.677-60.759,26.956-19.684,9.354-38.532,18.93-55.608,28.433-4.61,2.65-9.26,5.222-13.782,7.889-4.46,2.737-8.88,5.466-13.221,8.2l-15.072-17.5L154.134,453a323.33,323.33,0,0,1,37.228-32.906c18.861-14.548,38.817-27.229,59.575-39.172s42.494-22.845,65.318-33.21c41.837-18.94,89.684-37.265,130.843-49.655-5.11,1.926-10.5,3.294-15.7,5.169-1.876.682-3.36,1.406-5.246,2.089-11.872,4.326-25.059,8.695-38.531,13.775q-18.048,6.78-36.4,14.436Q332.83,341.126,314,349.7c-4.086,1.86-8.186,3.712-12.116,5.605s-7.762,3.657-11.265,5.446c-14.336,7.085-28.272,13.954-40.55,20.943l-6.272,3.586c-2.216,1.274-4.372,2.633-6.091,3.712-2.017,1.283-3,2.217-5.3,3.7-2.4,1.508-5.009,3.062-7.418,4.6-1.968,1.275-3.83,2.677-5.773,3.955-10.948,7.437-22.938,15.7-34.218,24.573a289.275,289.275,0,0,0-30.055,27.729l-6.089,6.717,14.045,16.31c5.061-3.073,10.092-6.206,15.2-9.26l15.6-8.871,15.859-8.521,16.029-8.175c3.72-1.89,7.511-3.676,11.271-5.521,3.779-1.812,7.522-3.7,11.344-5.455,7.632-3.525,15.229-7.158,22.958-10.548l11.562-5.161,11.64-5.005c7.743-3.382,15.582-6.534,23.375-9.778,3.9-1.607,7.832-3.131,11.743-4.7s7.823-3.13,11.756-4.6L353,386.478l11.783-4.292c3.918-1.463,7.853-2.759,11.773-4.118l5.877-2.013,5.866-1.862,5.855-1.86,5.794-1.633c3.926-1.206,7.544-1.9,11.238-2.77l-6.934-19.354-16.4,9.237-8.042,4.536-7.936,4.585c-8.269,4.79-16.646,9.468-25.97,15-6.089,3.581-13.18,7.577-16.868,10.042-2.71,1.78-2.147,1.228-2.58,2.042-3.226.944-14.608,8.136-24.134,14-14.595,8.823-31.632,19.615-48.727,30.772-17.109,11.138-34.177,22.8-49,33.081-6.154,4.221-11.93,8.486-17.659,12.68-5.677,4.251-11.3,8.455-16.94,12.774L142.89,517.845l14.732,20.426c9.037-5.943,17.855-11.765,26.019-17.338,2.126-1.452,4.06-2.934,6.051-4.282,4.88-3.276,9.927-6.337,14.755-9.578l13.21-8.912,13.169-8.817,13.187-8.824,13.351-8.736c16.183-10.589,31.77-20.652,47.823-30.511,16.783-10.19,34.891-20.512,50.586-28.688l7.583-3.933,7.64-3.71c5.054-2.5,10.193-4.8,15.281-7.131,20.757-9.388,43.1-18.321,65.748-27.72l-8.7-17.222L433.2,359.262c-3.416,2.158-6.82,4.408-10.24,6.618-14.957,9.782-29.7,20.209-44.379,30.205,7.649-6.048,17.855-12.738,26.841-18.889,2.06-1.435,4.054-3.008,6.126-4.38,2.795-1.866,5.549-3.627,8.292-5.379,2.761-1.725,5.506-3.449,8.262-5.277,4.748-3.174,9.507-6.444,14.564-9.721l.282-.181,9.345,18.5c-11.789,5-25.458,10.438-38.707,16.022-15.747,6.628-28.908,12.312-44.846,19.861-4.876,2.235-9.48,4.9-14.028,7.142L350.239,416l-4.563,2.427-9.308,5.032c-3.08,1.762-6.13,3.55-9.088,5.295-2.953,1.76-5.833,3.427-8.49,5.16-5.571,3.116-9.982,5.761-14.361,8.482-4.354,2.788-8.687,5.626-14.146,9.038-3.3,2.036-6.611,4.219-9.946,6.392l-10.008,6.57c-6.659,4.385-13.19,8.9-19.434,13.107a100.956,100.956,0,0,0,10.259-6.341l6.954-4.615,7.094-4.611c4.78-3.081,9.623-6.294,14.648-9.429,19.468-12.36,40.024-24.454,59.55-34.843,3.105-1.74-.415.64,2.147-.6,2.866-1.556-1.355.083,1.052-1.189,3.175-1.763,1.95-.585,3.765-1.438,3.229-1.669,3.931-2.241,6.963-3.672,2.759-1.5-2.266.811.529-.742,3.011-1.408,5.608-2.691,8.257-3.994s5.343-2.635,8.624-4.012c-3.437,1.966-10.639,4.942-13.078,6.555,2.3-.818,9.5-4.592,13.618-6.407,3-1.41-.76-.058,2.215-1.529,15.922-7.211,32.273-13.987,48.664-20.746,3.523-1.5-.435.609,2.232-.407,2.522-1.114,3.835-2.126,6.272-3.222,2.769-1.245,7.478-3.041,11.908-4.837l-10-19.789-2.081,1.306c-12.066,7.556-26.239,16.76-38.32,25.025l-5.243,3.613-5.376,3.813-11.693,8.22c-3.3,2.358.559-1.084-3.114,1.613-5.733,3.867-3.1,2.811-5.905,4.9-3.056,2.134.4-.561-1.072.326-6.99,5.073-15.389,11.2-22.783,17a10.1,10.1,0,0,0-2.817,2.795,642.91,642.91,0,0,0-66.629,57.367c-6.3,6.241-12.38,12.723-18.2,19.074-4.815,5.241-10.22,10.945-14.961,16.9-1.393,1.719-2.646,3.471-3.917,5.163-1.25,1.734-2.488,3.452-3.753,5.208A139.4,139.4,0,0,0,225.369,542.172Z" transform="translate(-114.653 -205.922)" fill="#fcd2a2" opacity="0.39"/>
      </g>
      <path id="Path_269" data-name="Path 269" d="M314.871,470.477H252.088L240.507,369.7H326.07Z" transform="translate(-11.941 -19.74)" fill="#7daf3f"/>
      <path id="Path_270" data-name="Path 270" d="M287.018,470.385l.591-100.685H330.39L319.041,470.477Z" transform="translate(-16.261 -19.74)" fill="#3aaa35"/>
      <path id="Path_271" data-name="Path 271" d="M245.905,417.414l2.555,21.323,5.276-2.715-3.915-21.136Z" transform="translate(-12.443 -23.937)" fill="#063"/>
      <path id="Path_272" data-name="Path 272" d="M316.112,436.168l2.856,18.142,4.975,1.217,2.6-20.754Z" transform="translate(-18.964 -25.784)" fill="#063"/>
      <path id="Path_273" data-name="Path 273" d="M242.607,403.954l-3.948-34.246H238a5.973,5.973,0,0,0-5.832,4.684l-21.1,35.7-3.936,6.423a25.925,25.925,0,0,0-3.9,6.847c-1.5,4.7-.493,8.1.31,12.181,1.206-8.2,6.267-6.539,8.3-7.522l4.516,4.824Z" transform="translate(-8.407 -19.741)" fill="#7daf3f"/>
      <ellipse id="Ellipse_57" data-name="Ellipse 57" cx="134.253" cy="25.846" rx="134.253" ry="25.846" transform="translate(139.816 538.756)" fill="#f6f6f6"/>
      <path id="Path_274" data-name="Path 274" d="M261.368,369.7s1.921,22.439,23.859,26.521c9.539-1.361,23.009-11.252,23.613-26.49C296.292,369.7,261.368,369.7,261.368,369.7Z" transform="translate(-13.879 -19.74)" fill="#3aaa35"/>
      <g id="Group_316" data-name="Group 316" transform="translate(313.123 250.518)">
        <path id="Path_275" data-name="Path 275" d="M333.723,275.4c0,8.007,5.37,14.5,11.995,14.5s9.347-8.489,12.056-16.216c2.649-7.557-3.166-16.664-13.6-12.6C338,263.484,333.723,267.389,333.723,275.4Z" transform="translate(-333.723 -260.075)" fill="#fcb87e"/>
        <path id="Path_276" data-name="Path 276" d="M347.007,265.158a6.876,6.876,0,0,1,5.458-.708,4.584,4.584,0,0,1,2.387,1.977,5.543,5.543,0,0,1,.579,1.419,6.075,6.075,0,0,1,.247,1.451,13.127,13.127,0,0,1-.121,2.822c-.16.867-.287,1.738-.479,2.6-.17.865-.374,1.727-.582,2.588l-.345,1.287-.18.641-.045.157-.005.018a.073.073,0,0,0-.044-.059c-.074-.006-.086.005-.114.026-.008.026.017-.034.024-.047l.124-.312.011.339a.293.293,0,0,1-.014.113c-.038.052-.06.092-.134.037a.137.137,0,0,1-.048-.1l0-.023-.022-.173-.046-.673c-.025-.448-.027-.893-.04-1.338,0-.889.013-1.776.062-2.658.025-.886.12-1.763.181-2.643a17.6,17.6,0,0,0,.016-2.452,4.68,4.68,0,0,0-.169-1.149,4.586,4.586,0,0,0-.347-1.044,3.449,3.449,0,0,0-1.443-1.51A9.226,9.226,0,0,0,347.007,265.158Z" transform="translate(-334.957 -260.455)" fill="#432918"/>
      </g>
      <g id="Group_317" data-name="Group 317" transform="translate(205.044 250.518)">
        <path id="Path_277" data-name="Path 277" d="M239.264,275.4c0,8.007-5.37,14.5-11.995,14.5s-9.347-8.489-12.056-16.216c-2.649-7.557,3.166-16.664,13.6-12.6C234.982,263.484,239.264,267.389,239.264,275.4Z" transform="translate(-214.576 -260.075)" fill="#fcb87e"/>
        <path id="Path_278" data-name="Path 278" d="M227.616,265.158a9.227,9.227,0,0,0-4.9.589,3.449,3.449,0,0,0-1.443,1.51,4.586,4.586,0,0,0-.347,1.044,4.724,4.724,0,0,0-.169,1.149,17.593,17.593,0,0,0,.016,2.452c.061.881.156,1.757.181,2.643.049.882.061,1.769.062,2.658-.013.445-.014.89-.04,1.338l-.046.673-.022.173,0,.023a.137.137,0,0,1-.048.1c-.074.054-.1.015-.134-.037a.27.27,0,0,1-.014-.113l.01-.339.124.312c.006.013.032.073.024.047-.028-.021-.04-.033-.114-.026a.075.075,0,0,0-.044.059l-.005-.018-.045-.157-.181-.641-.345-1.287c-.209-.861-.412-1.723-.581-2.588-.192-.864-.319-1.734-.48-2.6a13.131,13.131,0,0,1-.121-2.822,6.073,6.073,0,0,1,.247-1.451,5.544,5.544,0,0,1,.579-1.419,4.583,4.583,0,0,1,2.388-1.977A6.874,6.874,0,0,1,227.616,265.158Z" transform="translate(-214.979 -260.455)" fill="#432918"/>
      </g>
      <path id="Path_279" data-name="Path 279" d="M335.313,258.627c0-29.673-13.62-74.727-53.081-74.775-39.461.048-53.082,45.1-53.082,74.775,0,0-.529,24.187,2.623,30.094,2.174,9.772,11.36,20.842,15.628,29.384,7.994,16,20.547,27.416,34.831,27.551,11.257-.106,27.408-12.038,34.035-27.551,6.291-14.723,15.737-22.683,18.876-36.788C336.26,276.294,335.313,258.627,335.313,258.627Z" transform="translate(-10.883 -2.477)" fill="#fcb87e"/>
      <g id="Group_318" data-name="Group 318" transform="translate(213.207 273.895)">
        <circle id="Ellipse_58" data-name="Ellipse 58" cx="1.809" cy="1.809" r="1.809" transform="translate(0.298 0)" fill="#c6c6c6"/>
        <circle id="Ellipse_59" data-name="Ellipse 59" cx="1.809" cy="1.809" r="1.809" transform="translate(0 0)" fill="#f6f6f6"/>
      </g>
      <path id="Path_280" data-name="Path 280" d="M236.96,236.733s-14.757,43.5,7.017,78.94c-7.612-11.4-18.749-20.636-14.242-58A60.193,60.193,0,0,1,236.96,236.733Z" transform="translate(-10.844 -7.389)" fill="#eea371" opacity="0.52"/>
      <path id="Path_281" data-name="Path 281" d="M336.082,234.739s16.515,34.99.413,69.981c6.577-13.335,13-13.844,7.468-49.438A50.834,50.834,0,0,0,336.082,234.739Z" transform="translate(-20.819 -7.204)" fill="#eea371" opacity="0.52"/>
      <path id="Path_282" data-name="Path 282" d="M297.482,484.076H272.058l-19,.288-4.074,90.2h22.164s.673-29.079,1.7-44.851c.406-6.268,1.231-17.918,7.369-21.967,1.956,0,2.2.073,4.561-.029,1.88.082,3.132.023,5.219.023,5.606,4.172,6.284,15.377,6.711,21.973,1.023,15.772,1.7,44.851,1.7,44.851H320.56l-5.053-90.2Z" transform="translate(-12.728 -30.364)" fill="#575756"/>
      <rect id="Rectangle_204" data-name="Rectangle 204" width="27.086" height="8.475" transform="translate(233.106 544.198)" fill="#878787"/>
      <rect id="Rectangle_205" data-name="Rectangle 205" width="27.086" height="8.475" transform="translate(282.913 544.198)" fill="#575756"/>
      <path id="Rectangle_206" data-name="Rectangle 206" d="M6.292,0h15.8a6.292,6.292,0,0,1,6.292,6.292v9.875a0,0,0,0,1,0,0H0a0,0,0,0,1,0,0V6.292A6.292,6.292,0,0,1,6.292,0Z" transform="translate(232.457 548.435)"/>
      <path id="Rectangle_207" data-name="Rectangle 207" d="M6.292,0h15.8a6.292,6.292,0,0,1,6.292,6.292v9.875a0,0,0,0,1,0,0H0a0,0,0,0,1,0,0V6.292A6.292,6.292,0,0,1,6.292,0Z" transform="translate(282.263 548.435)"/>
      <path id="Path_283" data-name="Path 283" d="M301.147,484.076H288.435v23.638c1.88.082,3.132.023,5.219.023,5.606,4.172,6.284,15.377,6.711,21.973,1.023,15.772,1.7,44.851,1.7,44.851h22.165l-5.053-90.2Z" transform="translate(-16.393 -30.364)" fill="#878787"/>
      <rect id="Rectangle_208" data-name="Rectangle 208" width="28.386" height="3.524" transform="translate(232.457 561.079)" fill="#fff"/>
      <rect id="Rectangle_209" data-name="Rectangle 209" width="28.386" height="3.524" transform="translate(282.263 561.079)" fill="#fff"/>
      <path id="Path_284" data-name="Path 284" d="M299.343,370.34l-13.228,11.591L272.887,370.34V342.177h26.455Z" transform="translate(-14.949 -17.183)" fill="#fcb87e"/>
      <path id="Path_285" data-name="Path 285" d="M258.3,321.172c2.49-4.634,14.094-12.8,14.094-12.8l9.721,5.977,8.443-4.6s10.918-1,16.036,4.6c6.2,6.782,10.124,21.847,2.922,28.859-4.643,4.276-13.613,13.677-24.944,14.013-6.34-.332-13.194-2.251-23.071-10.252C253.976,338.78,250.888,334.963,258.3,321.172Z" transform="translate(-13.2 -14.043)" fill="#eea371" opacity="0.72"/>
      <path id="Path_286" data-name="Path 286" d="M303.377,315.2c-10.192.948-21.26,2.42-34.96,9.609-6.216,4.8,12.624,17.889,23.8,14.973C303.741,336.78,312.637,314.342,303.377,315.2Z" transform="translate(-14.42 -14.676)" fill="#fcb87e"/>
      <rect id="Rectangle_210" data-name="Rectangle 210" width="62.454" height="5.636" transform="translate(240.326 450.737)" fill="#683c11"/>
      <path id="Path_287" data-name="Path 287" d="M278.269,256.4a31.817,31.817,0,0,1,2.144,9.022,59.333,59.333,0,0,1,.181,9.284,77.921,77.921,0,0,1-1.065,9.2,61.543,61.543,0,0,1-2.193,8.983l.789-9.166c.244-3.043.523-6.077.659-9.113.1-1.517.153-3.035.19-4.551l.053-2.276c-.019-.757-.022-1.515-.021-2.274A67.1,67.1,0,0,0,278.269,256.4Z" transform="translate(-15.362 -9.216)" fill="#432918"/>
      <path id="Path_288" data-name="Path 288" d="M273.811,299.46a14.576,14.576,0,0,0-2.349,2.873,4.279,4.279,0,0,0-.611,1.555,1.578,1.578,0,0,0,.309,1.241l.108.259c-.035-.146,0-.04.026-.039a1.009,1.009,0,0,0,.111.092,1.815,1.815,0,0,0,.338.192,4.474,4.474,0,0,0,.905.275,10.651,10.651,0,0,0,2.115.185h.335l.342.291a53.464,53.464,0,0,0,6.644,5.09,8.031,8.031,0,0,0,1.669.77,2.5,2.5,0,0,0,.648.114,1.9,1.9,0,0,0,.582-.136,18.2,18.2,0,0,0,3.36-2.058c1.166-.815,2.3-1.716,3.6-2.512a9.218,9.218,0,0,1,2.231-1.048,5.763,5.763,0,0,0,1.65-.756,2.779,2.779,0,0,0,1.426-2.972,7.908,7.908,0,0,0-2.28-3.419,9.892,9.892,0,0,1,1.818,1.253,5.255,5.255,0,0,1,1.412,1.845,3.486,3.486,0,0,1,.126,2.537,5.116,5.116,0,0,1-1.438,2.084,6.421,6.421,0,0,1-2.129,1.309,7.727,7.727,0,0,0-1.568,1c-1.08.839-2.175,1.771-3.306,2.7-.566.469-1.159.922-1.792,1.36a10.78,10.78,0,0,1-2.144,1.2,4.109,4.109,0,0,1-3,.088,10.606,10.606,0,0,1-2.235-1.077,24,24,0,0,1-3.6-2.756c-1.1-.991-2.153-2.017-3.139-3.1l.676.292a12.439,12.439,0,0,1-2.508-.492,5.826,5.826,0,0,1-1.259-.6,3.362,3.362,0,0,1-.6-.5,2.358,2.358,0,0,1-.275-.346,1.616,1.616,0,0,1-.244-.554l.108.259a2.878,2.878,0,0,1-.227-2.382,5.347,5.347,0,0,1,1.092-1.787A11.5,11.5,0,0,1,273.811,299.46Z" transform="translate(-14.633 -13.215)" fill="#432918"/>
      <g id="Group_319" data-name="Group 319" transform="translate(241.369 238.183)">
        <ellipse id="Ellipse_60" data-name="Ellipse 60" cx="5.809" cy="9.343" rx="5.809" ry="9.343" transform="translate(2.546 1.576)" fill="#936037"/>
        <path id="Path_289" data-name="Path 289" d="M254.621,246.581s12.047-1.616,13.863,7.858" transform="translate(-254.621 -246.477)" fill="#936037"/>
      </g>
      <g id="Group_320" data-name="Group 320" transform="translate(278.268 238.183)">
        <ellipse id="Ellipse_61" data-name="Ellipse 61" cx="5.809" cy="9.343" rx="5.809" ry="9.343" transform="translate(2.546 1.576)" fill="#936037"/>
        <path id="Path_290" data-name="Path 290" d="M295.3,246.581s12.047-1.616,13.862,7.858" transform="translate(-295.298 -246.477)" fill="#936037"/>
      </g>
      <path id="Path_291" data-name="Path 291" d="M291.417,232.323s-1.589,5.307,2.312,5.522,13.761-3.823,21.5-2.76,0-3.716,0-3.716A222.748,222.748,0,0,0,291.417,232.323Z" transform="translate(-16.64 -6.889)" fill="#432918"/>
      <path id="Path_292" data-name="Path 292" d="M269.744,232.323s1.589,5.307-2.312,5.522-13.76-3.823-21.5-2.76,0-3.716,0-3.716A222.734,222.734,0,0,1,269.744,232.323Z" transform="translate(-12.126 -6.889)" fill="#432918"/>
      <path id="Path_293" data-name="Path 293" d="M274.012,329.983a22.751,22.751,0,0,0,7.5,1.5,22.317,22.317,0,0,0,7.377-1.04,24.191,24.191,0,0,0,3.447-1.47,13.1,13.1,0,0,0,1.665-.889c.527-.349,1.064-.685,1.608-1.017a15.229,15.229,0,0,0,1.548-1.123l1.547-1.157c.976-.841,1.932-1.717,2.975-2.54-.736,1.083-1.531,2.139-2.356,3.18a35.669,35.669,0,0,1-2.865,2.773,22.626,22.626,0,0,1-7.01,3.967,18.82,18.82,0,0,1-8.057.721A15.426,15.426,0,0,1,274.012,329.983Z" transform="translate(-15.053 -15.332)" fill="#432918"/>
      <path id="Path_294" data-name="Path 294" d="M302.5,319.491a5.892,5.892,0,0,0,1.989,2.324,3.373,3.373,0,0,0,1.366.444c.249.053.514.028.786.061.272,0,.547-.017.847.009a4.949,4.949,0,0,1-.766.428,3.719,3.719,0,0,1-.87.21,2.9,2.9,0,0,1-1.821-.368,3.091,3.091,0,0,1-1.235-1.378A3.176,3.176,0,0,1,302.5,319.491Z" transform="translate(-17.697 -15.076)" fill="#432918"/>
      <ellipse id="Ellipse_62" data-name="Ellipse 62" cx="0.774" cy="1.793" rx="0.774" ry="1.793" transform="translate(286.427 243.599)" fill="#f6f6f6"/>
      <path id="Path_295" data-name="Path 295" d="M324.125,177.638c1.8-6.064-3.343-13.823-3.343-13.823s-.515,8.485-3.4,11.932c-.829-1.591,1.087-11.137,3.4-16.175-2.829.53-4.63,6.363-6.431,13.257,1.029-4.243-3.183-9.546-3.183-9.546s.868,7.69,0,10.872c-3.184-1.326-2.218-11.4-1.447-14.584-1.482.9-2.4,2.835-2.978,5a21.654,21.654,0,0,0-3.028-7.387c1.158,2.313-.466,14.59-.567,15.343.039-.317.268-2.874-1.555-10.04.359,3.182-3.392,9.546-3.392,9.546s-2.112-7.159,0-12.462c-4.078,2.121-5.121,6.6-5.364,9.346a10.454,10.454,0,0,0-2.323-6.164c.916,1.975.174,5.568-2.018,9.015-2.193-1.591-.637-7.425,1.654-12.2-2.732.933-5.16,5.211-6.2,8.637a23.2,23.2,0,0,0-.7-5.19,13.828,13.828,0,0,1-1.066,8.1v18.868a96.2,96.2,0,0,1,11.253-.981c9.171,0,27.094,1.856,33.11,7.622A102.85,102.85,0,0,1,324.125,177.638Z" transform="translate(-15.812 0)" fill="#432918"/>
      <ellipse id="Ellipse_63" data-name="Ellipse 63" cx="0.774" cy="1.793" rx="0.774" ry="1.793" transform="translate(250.181 243.599)" fill="#f6f6f6"/>
      <path id="Path_296" data-name="Path 296" d="M243.156,180.413a2.954,2.954,0,0,0-.661-1.862,10.413,10.413,0,0,1,0,3.064h0s-10.842,20.5-13.55,34.828c-2.193,11.6-1.582,37.08-1.582,37.08,2.562.077,1.689.812,1.689.812s15.055-65.318,15.965-69.106A4.076,4.076,0,0,0,243.156,180.413Z" transform="translate(-10.713 -1.985)" fill="#432918"/>
      <path id="Path_297" data-name="Path 297" d="M342.956,218.919c-3.036-16.306-17.3-40.756-17.3-40.756-.888.049-1.079.9-.8,1.851a5.122,5.122,0,0,0-1.5,5.179c.91,3.787,17,74.32,17,74.32s2.124-6.562,4.686-6.638C345.043,252.875,344.86,229.149,342.956,218.919Z" transform="translate(-19.621 -1.949)" fill="#432918"/>
      <path id="Path_298" data-name="Path 298" d="M255.671,195.023s-21.685,15.484-20.631,76.51c-1.4-.988-6.3-4.583-6.3-4.583a112.358,112.358,0,0,1,.8-15.951C232.118,228.44,239.508,190.576,255.671,195.023Z" transform="translate(-10.845 -3.481)" fill="#432918"/>
      <path id="Path_299" data-name="Path 299" d="M310.715,188.1s27.516,20.088,26.463,81.115c1.4-.989,6.089-5.294,6.089-5.294S342.3,209.794,310.715,188.1Z" transform="translate(-18.463 -2.872)" fill="#432918"/>
      <path id="Path_300" data-name="Path 300" d="M263.881,185.375c-2.8,2.633-6.453,2.931-10.066,3.787a5.277,5.277,0,0,1-.836.21c-.342.091-.682.189-1.021.3-4.147,1.322-5.873,2.368-9.145,5.646l-3.572,24.1s11.962-35.458,32.474-22c8.218,5.394,11.86,4.272,17.26-.815,16.356-15.407,32.63,13.694,36.944,22.812-4.135-11.512-6.947-21.862-8.212-30.175C301.158,179.92,282.054,184.538,263.881,185.375Z" transform="translate(-11.824 -2.444)" fill="#432918"/>
      <path id="Path_301" data-name="Path 301" d="M244.185,178.232c-1.59-6.064,3.438-14.417,3.438-14.417s.454,8.485,3,11.932c.733-1.591-.96-11.137-3-16.175,2.5.53,4.089,6.363,5.679,13.257-.908-4.243,2.813-9.546,2.813-9.546s-.767,7.69,0,10.872c2.812-1.326,1.958-11.4,1.277-14.584,1.309.9,2.124,2.835,2.631,5a23.352,23.352,0,0,1,2.674-7.387c-1.023,2.313.412,14.59.5,15.343-.034-.317-.236-2.874,1.373-10.04-.317,3.182,3,9.546,3,9.546s1.865-7.159,0-12.462c3.6,2.121,4.523,6.6,4.738,9.346a11.318,11.318,0,0,1,2.052-6.164c-.809,1.975-.153,5.568,1.783,9.015,1.936-1.591.562-7.425-1.461-12.2,2.414.933,4.557,5.211,5.479,8.637a26.035,26.035,0,0,1,.623-5.19,15.531,15.531,0,0,0,.941,8.1v18.868a75.3,75.3,0,0,0-9.939-.981c-8.1,0-23.932,1.856-29.246,7.622C243.263,193.691,244.185,184.031,244.185,178.232Z" transform="translate(-12.13 0)" fill="#432918"/>
      <path id="Path_302" data-name="Path 302" d="M241.9,185.913s5.043-3.582,14.19-1.338c9.088,2.23,14.352-2.288,19.167-2.757s12,1.594,15.392,2.23,13.841-2.035,17.261-1.692c5.591.56,14.168,4.087,14.168,4.087a38.7,38.7,0,0,0,2.727,5.444c-1.449.658-21.226-1.153-25.233-3.468-6.388-3.69-14.155,2.073-19.777,1.668s-16.248-4.321-22.671-.414c-8.681,5.281-19.387,5.415-19.387,5.415Z" transform="translate(-11.684 -2.282)" fill="#683c11"/>
      <path id="Path_303" data-name="Path 303" d="M287.67,369.708v26.5c9.536-1.392,22.951-11.273,23.554-26.48C305.925,369.72,296.635,369.713,287.67,369.708Z" transform="translate(-16.322 -19.741)" fill="#accb74"/>
      <g id="Group_321" data-name="Group 321" transform="translate(253.083 349.959)">
        <path id="Path_304" data-name="Path 304" d="M287.67,369.7v21.9c18.442-5.664,18.264-21.9,18.264-21.9Z" transform="translate(-269.405 -369.699)" fill="#eea371"/>
        <path id="Path_305" data-name="Path 305" d="M285.8,369.7v21.9c-18.443-5.664-18.265-21.9-18.265-21.9Z" transform="translate(-267.535 -369.699)" fill="#eea371"/>
      </g>
      <path id="Path_306" data-name="Path 306" d="M330.315,403.954l3.948-34.246h.661a5.972,5.972,0,0,1,5.831,4.684l21.1,35.7,3.936,6.423a71.012,71.012,0,0,1,4.287,8.29c4.283,11.1.1,6.661-.7,10.738-1.2-8.2-6.267-6.539-8.3-7.522l-6.178,8.964Z" transform="translate(-20.283 -19.741)" fill="#3aaa35"/>
      <path id="Path_307" data-name="Path 307" d="M349.817,427.87l-30.687,8.045-1.18,17.865s40.309-1.082,47.149-5.911c5.666-4,7.9-9.835,4.651-15.428A147.307,147.307,0,0,0,349.817,427.87Z" transform="translate(-19.135 -25.143)" fill="#008d36"/>
      <path id="Path_308" data-name="Path 308" d="M346.739,429.52a9.11,9.11,0,0,1,3.079-1.639,11.188,11.188,0,0,1,6.969.032,10.545,10.545,0,0,1,1.62.677,15.519,15.519,0,0,1,1.472.931,27.786,27.786,0,0,0-3.276-.924,16.539,16.539,0,0,0-6.608-.032A18.213,18.213,0,0,0,346.739,429.52Z" transform="translate(-21.809 -25.094)" fill="#063"/>
      <g id="Group_323" data-name="Group 323" transform="translate(285.482 374.508)">
        <g id="Group_322" data-name="Group 322" transform="translate(0 8.007)">
          <path id="Path_309" data-name="Path 309" d="M303.9,406.574l-.343-.551h-.309v1.3h.281v-.846l.363.551h.007l.367-.557v.851h.285v-1.3h-.309Z" transform="translate(-303.251 -405.628)" fill="#fff"/>
          <path id="Path_310" data-name="Path 310" d="M306.825,406.013l-.559,1.313h.292l.12-.292h.552l.119.292h.3l-.559-1.313Zm-.044.767.173-.423.173.423Z" transform="translate(-303.531 -405.627)" fill="#fff"/>
          <path id="Path_311" data-name="Path 311" d="M309.079,406.288h.4v1.039h.287v-1.039h.4v-.264h-1.08Z" transform="translate(-303.793 -405.628)" fill="#fff"/>
          <path id="Path_312" data-name="Path 312" d="M312.153,406.8h.615v-.255h-.615v-.264h.7v-.255h-.983v1.3h.993v-.255h-.708Z" transform="translate(-304.052 -405.628)" fill="#fff"/>
          <path id="Path_313" data-name="Path 313" d="M312.757,405.694l-.244-.106-.225.292h.216Z" transform="translate(-304.091 -405.588)" fill="#fff"/>
          <path id="Path_314" data-name="Path 314" d="M315.688,406.458v0a.409.409,0,0,0-.112-.3.52.52,0,0,0-.38-.132h-.6v1.3h.287v-.417h.225l.279.417h.336l-.318-.465A.4.4,0,0,0,315.688,406.458Zm-.291.015c0,.11-.08.184-.22.184h-.29v-.374h.285c.14,0,.225.063.225.186Z" transform="translate(-304.306 -405.628)" fill="#fff"/>
          <rect id="Rectangle_211" data-name="Rectangle 211" width="0.287" height="1.304" transform="translate(12.884 0.395)" fill="#fff"/>
          <path id="Path_315" data-name="Path 315" d="M319.921,406.013l-.559,1.313h.292l.12-.292h.551l.12.292h.3l-.559-1.313Zm-.044.767.173-.423.173.423Z" transform="translate(-304.748 -405.627)" fill="#fff"/>
          <path id="Path_316" data-name="Path 316" d="M323.238,406.77c0,.207-.106.313-.281.313s-.281-.11-.281-.322v-.738h-.287v.745a.518.518,0,0,0,.564.58.525.525,0,0,0,.571-.589v-.736h-.287Z" transform="translate(-305.029 -405.628)" fill="#fff"/>
          <path id="Path_317" data-name="Path 317" d="M325.984,406.66l.436-.637h-.326l-.278.423-.272-.423h-.335l.436.641-.455.663h.326l.294-.447.292.447h.335Z" transform="translate(-305.289 -405.628)" fill="#fff"/>
        </g>
        <path id="Path_318" data-name="Path 318" d="M311.033,403.635l-2.86-6.767h-1.868l-2.979,7.072a.221.221,0,0,0,.2.306h1.612l.54-1.359h3.073l.54,1.359h1.334a.439.439,0,0,0,.4-.61Zm-4.827-2.153,1.018-2.55,1,2.55Z" transform="translate(-303.257 -396.771)" fill="#fff"/>
        <path id="Path_319" data-name="Path 319" d="M323.047,400.049a.508.508,0,0,0-.507.507v.8h1.477v1.088l-.049.034a2.2,2.2,0,0,1-1.271.332,2.116,2.116,0,0,1-2.16-2.214v-.022a2.088,2.088,0,0,1,2.042-2.172,2.715,2.715,0,0,1,1.807.667l.637-.772a.651.651,0,0,0,.14-.536.64.64,0,0,0-.311-.443,4.469,4.469,0,0,0-2.283-.557,3.988,3.988,0,0,0-2.875,1.153v5.341a4.066,4.066,0,0,0,2.917,1.131,4.922,4.922,0,0,0,3.166-1.116v-3.221Z" transform="translate(-304.779 -396.761)" fill="#fff"/>
        <path id="Path_320" data-name="Path 320" d="M318.123,396.927h-1.511l-1.863,3.023-1.863-3.023h-1.393a.644.644,0,0,0-.642.643v3.4l1.09,2.58a.62.62,0,0,1-.12.7h.247a.607.607,0,0,0,.607-.607v-3.981l2.053,3.148,2.064-3.159v4.215a.384.384,0,0,0,.383.384H318.2a.451.451,0,0,0,.45-.451v-6.348A.525.525,0,0,0,318.123,396.927Z" transform="translate(-303.957 -396.776)" fill="#fff"/>
      </g>
      <path id="Path_321" data-name="Path 321" d="M229.5,422.081l19.142-7.2,10.36,14.6s-34.907,20.186-43.263,19.654c-6.921-.441-13.124-7.638-12.934-14.474,1.928-5.674,7.808-7.173,17.925-12.517C224.664,420.073,229.5,422.081,229.5,422.081Z" transform="translate(-8.439 -23.937)" fill="#95c11f"/>
      <g id="Group_324" data-name="Group 324" transform="translate(220.463 368.671)">
        <path id="Path_322" data-name="Path 322" d="M258.81,414.127s6.548,11.631,3.972,12.216-10.777-5.541-10.777-5.541Z" transform="translate(-233.472 -392.537)" fill="#b2b2b2"/>
        <path id="Path_323" data-name="Path 323" d="M256.912,411.916l-20.419-20.733a2.873,2.873,0,0,0-4.225.143h0a2.872,2.872,0,0,0-.11,3.609l17.949,23.657Z" transform="translate(-231.574 -390.326)" fill="#1d1d1b"/>
      </g>
      <g id="Group_327" data-name="Group 327" transform="translate(235.609 365.438)">
        <path id="Path_324" data-name="Path 324" d="M298.959,469.738H261.3c-3.1,0-5.72-2.6-6.127-6.085l-6.851-58.587c-.491-4.2,2.391-7.925,6.128-7.925h51.355c3.736,0,6.618,3.728,6.128,7.925l-6.851,58.587C304.679,467.136,302.058,469.738,298.959,469.738Z" transform="translate(-248.272 -387.727)" fill="#683c11"/>
        <path id="Path_325" data-name="Path 325" d="M309.072,397.141H283.394v72.6h18.827c3.1,0,5.72-2.6,6.128-6.085l6.851-58.587C315.69,400.869,312.808,397.141,309.072,397.141Z" transform="translate(-251.534 -387.727)" fill="#7d4e24"/>
        <g id="Group_326" data-name="Group 326" transform="translate(18.396)">
          <rect id="Rectangle_212" data-name="Rectangle 212" width="13.032" height="9.036" transform="translate(0 9.414)" fill="#878787"/>
          <rect id="Rectangle_213" data-name="Rectangle 213" width="13.896" height="9.036" transform="translate(13.032 9.414)" fill="#706f6f"/>
          <g id="Group_325" data-name="Group 325" transform="translate(7.758)">
            <path id="Path_326" data-name="Path 326" d="M282.334,386.763a5.23,5.23,0,1,0,5.229,5.229A5.23,5.23,0,0,0,282.334,386.763Zm0,7.453a2.223,2.223,0,1,1,2.223-2.223A2.223,2.223,0,0,1,282.334,394.216Z" transform="translate(-277.104 -386.763)" fill="#878787"/>
            <path id="Path_327" data-name="Path 327" d="M282.967,386.763v3.006a2.223,2.223,0,1,1,0,4.447v3.006a5.23,5.23,0,0,0,0-10.459Z" transform="translate(-277.649 -386.763)" fill="#706f6f"/>
          </g>
        </g>
      </g>
      <path id="Path_328" data-name="Path 328" d="M212.788,428.907a25.623,25.623,0,0,1,3.631-2.992,26.74,26.74,0,0,1,4.119-2.337,18.455,18.455,0,0,1,4.566-1.4,12.4,12.4,0,0,1,4.819.136l-.265.8a24.62,24.62,0,0,0-2.433-.9,25.707,25.707,0,0,0-2.526-.684c-.854-.188-1.717-.332-2.587-.45s-1.749-.161-2.634-.207a19.784,19.784,0,0,1,5.322.109,22.949,22.949,0,0,1,5.2,1.359.42.42,0,0,1-.234.8l-.031-.006a13.177,13.177,0,0,0-2.235-.242,15.717,15.717,0,0,0-2.256.173,20.414,20.414,0,0,0-4.393,1.253,32.125,32.125,0,0,0-4.155,2.036A42.993,42.993,0,0,0,212.788,428.907Z" transform="translate(-9.366 -24.481)" fill="#063"/>
      <g id="Group_329" data-name="Group 329" transform="translate(281.227 406.342)">
        <path id="Path_329" data-name="Path 329" d="M318.178,437.945c-2.641-4.219-15.093-9.1-17.933-3.714a1.806,1.806,0,0,0,.526,2.328s-4.415,3.336-.768,7.5c-1.783,1.947-1.342,6.425,1.266,7.281-1.309,4.747,2.384,8.866,8.68,5.244a17.154,17.154,0,0,0,7.458-3.209C320.523,451.147,320.216,441.2,318.178,437.945Z" transform="translate(-298.56 -431.856)" fill="#fcd2a2"/>
        <g id="Group_328" data-name="Group 328" transform="translate(0.745 0.083)">
          <path id="Path_330" data-name="Path 330" d="M319,438.056c-2.641-4.218-15.093-9.1-17.933-3.713a1.805,1.805,0,0,0,.525,2.328s-4.415,3.335-.768,7.5c-1.783,1.947-1.342,6.424,1.266,7.281-1.309,4.748,2.385,8.866,8.68,5.245a17.157,17.157,0,0,0,7.458-3.21C321.345,451.259,321.037,441.311,319,438.056Z" transform="translate(-299.381 -431.949)" fill="#fcb87e"/>
          <path id="Path_331" data-name="Path 331" d="M305.666,432.01s6.6,3.246,10.4,8.423c3.913,5.332,1.933,13.614,1.933,13.614a5.556,5.556,0,0,0,2.4-3.021,21.41,21.41,0,0,0-.222-11.714c-.591-1.258-2.506-4.754-9.9-6.831A14.246,14.246,0,0,0,305.666,432.01Z" transform="translate(-299.965 -431.947)" fill="#eea371"/>
        </g>
      </g>
      <g id="Group_331" data-name="Group 331" transform="translate(256.419 406.287)">
        <g id="Group_330" data-name="Group 330" transform="translate(0 8.007)">
          <path id="Path_332" data-name="Path 332" d="M271.864,441.609l-.343-.551h-.309v1.3h.281v-.846l.363.551h.007l.367-.557v.851h.285v-1.3h-.309Z" transform="translate(-271.213 -440.663)" fill="#b17f4a"/>
          <path id="Path_333" data-name="Path 333" d="M274.786,441.047l-.559,1.314h.293l.119-.293h.552l.119.293h.3l-.559-1.314Zm-.044.767.173-.423.173.423Z" transform="translate(-271.493 -440.662)" fill="#b17f4a"/>
          <path id="Path_334" data-name="Path 334" d="M277.041,441.322h.4v1.039h.287v-1.039h.4v-.265h-1.08Z" transform="translate(-271.754 -440.663)" fill="#b17f4a"/>
          <path id="Path_335" data-name="Path 335" d="M280.114,441.832h.615v-.255h-.615v-.264h.7v-.255h-.983v1.3h.993v-.255h-.708Z" transform="translate(-272.013 -440.663)" fill="#b17f4a"/>
          <path id="Path_336" data-name="Path 336" d="M280.718,440.728l-.244-.106-.225.292h.216Z" transform="translate(-272.052 -440.622)" fill="#b17f4a"/>
          <path id="Path_337" data-name="Path 337" d="M283.649,441.492v0a.41.41,0,0,0-.112-.3.522.522,0,0,0-.38-.132h-.6v1.3h.287v-.417h.225l.279.417h.336l-.318-.465A.405.405,0,0,0,283.649,441.492Zm-.29.015c0,.11-.081.185-.22.185h-.29v-.375h.285c.14,0,.226.064.226.186Z" transform="translate(-272.267 -440.663)" fill="#b17f4a"/>
          <rect id="Rectangle_214" data-name="Rectangle 214" width="0.287" height="1.304" transform="translate(12.884 0.395)" fill="#b17f4a"/>
          <path id="Path_338" data-name="Path 338" d="M287.882,441.047l-.559,1.314h.292l.12-.293h.552l.119.293h.3l-.559-1.314Zm-.044.767.173-.423.173.423Z" transform="translate(-272.709 -440.662)" fill="#b17f4a"/>
          <path id="Path_339" data-name="Path 339" d="M291.2,441.8c0,.207-.106.313-.281.313s-.281-.11-.281-.322v-.738h-.287v.746a.517.517,0,0,0,.564.579.525.525,0,0,0,.572-.588v-.737H291.2Z" transform="translate(-272.99 -440.663)" fill="#b17f4a"/>
          <path id="Path_340" data-name="Path 340" d="M293.945,441.695l.436-.637h-.326l-.278.423-.272-.423h-.335l.436.641-.454.663h.326l.294-.447.292.447h.335Z" transform="translate(-273.25 -440.663)" fill="#b17f4a"/>
        </g>
        <path id="Path_341" data-name="Path 341" d="M278.995,438.669l-2.861-6.767h-1.868l-2.979,7.072a.22.22,0,0,0,.2.306H273.1l.54-1.359h3.073l.54,1.359h1.335a.44.44,0,0,0,.4-.61Zm-4.828-2.153,1.018-2.55,1,2.55Z" transform="translate(-271.218 -431.805)" fill="#b17f4a"/>
        <path id="Path_342" data-name="Path 342" d="M291.008,435.084a.507.507,0,0,0-.507.507v.8h1.477v1.088l-.049.033a2.195,2.195,0,0,1-1.27.332,2.116,2.116,0,0,1-2.161-2.214v-.022a2.087,2.087,0,0,1,2.042-2.171,2.717,2.717,0,0,1,1.807.666l.638-.771a.659.659,0,0,0,.14-.536.642.642,0,0,0-.311-.443,4.467,4.467,0,0,0-2.284-.558,3.988,3.988,0,0,0-2.875,1.154v5.34a4.063,4.063,0,0,0,2.918,1.131,4.919,4.919,0,0,0,3.165-1.116v-3.22Z" transform="translate(-272.74 -431.795)" fill="#b17f4a"/>
        <path id="Path_343" data-name="Path 343" d="M286.084,431.962h-1.511l-1.863,3.023-1.863-3.023h-1.392a.644.644,0,0,0-.643.643v3.4l1.09,2.58a.62.62,0,0,1-.12.7h.248a.607.607,0,0,0,.606-.607V434.7l2.053,3.149,2.064-3.159V438.9a.383.383,0,0,0,.383.383h1.024a.451.451,0,0,0,.45-.45v-6.349A.525.525,0,0,0,286.084,431.962Z" transform="translate(-271.918 -431.811)" fill="#b17f4a"/>
      </g>
      <path id="Path_344" data-name="Path 344" d="M235.636,262.1s-11.441,14.845,0,27.987C243.466,281.454,238.318,263.613,235.636,262.1Z" transform="translate(-11.016 -9.745)" fill="#fcb87e"/>
      <path id="Path_345" data-name="Path 345" d="M338.95,261.1s11.441,14.845,0,27.987C331.12,280.454,336.268,262.613,338.95,261.1Z" transform="translate(-20.699 -9.652)" fill="#fcb87e"/>
    </g>
  </g>
</svg>
