<svg xmlns="http://www.w3.org/2000/svg" width="52" height="52" viewBox="0 0 52 52">
  <g id="_029-toolbox" data-name="029-toolbox" transform="translate(-8.974 -2)">
    <g id="Group_78" data-name="Group 78" transform="translate(13.307 2.867)" opacity="0.3">
      <path id="Path_84" data-name="Path 84" d="M51,13h5.2V23.4H51Z" transform="translate(-12.867 -4.333)" fill="#fff"/>
      <path id="Path_85" data-name="Path 85" d="M51,3h5.2V6.467H51Z" transform="translate(-12.867 -3)" fill="#fff"/>
      <path id="Path_86" data-name="Path 86" d="M51.933,29.35v4.9H48.467v-4.9a5.191,5.191,0,0,0,0,9.793v14.17h3.467V39.143a5.191,5.191,0,0,0,0-9.793Z" transform="translate(-12.067 -6.513)" fill="#fff"/>
      <path id="Path_89" data-name="Path 89" d="M7,13h5.2V23.4H7Z" transform="translate(-7 -4.333)" fill="#fff"/>
      <path id="Path_90" data-name="Path 90" d="M7,3h5.2V6.467H7Z" transform="translate(-7 -3)" fill="#fff"/>
    </g>
    <path id="Path_91" data-name="Path 91" d="M53.133,12.4A.867.867,0,0,0,54,11.533v-5.2a.867.867,0,0,0-.867-.867h-2.6v-2.6A.867.867,0,0,0,49.667,2h-5.2a.867.867,0,0,0-.867.867v2.6H12.4v-2.6A.867.867,0,0,0,11.533,2h-5.2a.867.867,0,0,0-.867.867v2.6h-2.6A.867.867,0,0,0,2,6.333v5.2a.867.867,0,0,0,.867.867h2.6v8.667h-2.6A.867.867,0,0,0,2,21.933v31.2A.867.867,0,0,0,2.867,54H53.133A.867.867,0,0,0,54,53.133v-31.2a.867.867,0,0,0-.867-.867h-2.6V12.4Zm-7.8-8.667H48.8V5.467H45.333ZM7.2,3.733h3.467V5.467H7.2ZM3.733,7.2H52.267v3.467H3.733ZM12.4,21.067V12.4H43.6v8.667ZM7.2,12.4h3.467v8.667H7.2ZM52.267,52.267H3.733V22.8H52.267ZM48.8,21.067H45.333V12.4H48.8Z" transform="translate(6.974)" fill="#fff"/>
    <path id="Path_94" data-name="Path 94" d="M47.467,39.59V53.18a.867.867,0,0,0,.867.867H51.8a.867.867,0,0,0,.867-.867V39.59A6.059,6.059,0,0,0,52.085,28.4a.867.867,0,0,0-1.152.819v4.03H49.2v-4.03a.867.867,0,0,0-1.152-.819,6.059,6.059,0,0,0-.582,11.192Zm0-8.943v3.467a.867.867,0,0,0,.867.867H51.8a.867.867,0,0,0,.867-.867V30.647a4.333,4.333,0,0,1-1.154,7.547.867.867,0,0,0-.579.816v13.3H49.2V39.01a.867.867,0,0,0-.579-.817,4.333,4.333,0,0,1-1.154-7.546Z" transform="translate(1.374 -3.513)" fill="#fff"/>
    <g id="Group_335" data-name="Group 335" transform="translate(35.615 25.424)">
      <path id="Path_351" data-name="Path 351" d="M39,45V55.391h3.464V45H39Z" transform="translate(-38.134 -31.145)" fill="#fff" opacity="0.3"/>
      <path id="Path_352" data-name="Path 352" d="M38.866,54.112H42.33a.866.866,0,0,0,.866-.866V42.855a.866.866,0,0,0-.866-.866h-.866V29H39.732V41.989h-.866a.866.866,0,0,0-.866.866V53.246A.866.866,0,0,0,38.866,54.112Zm.866-10.391h1.732V52.38H39.732Z" transform="translate(-38 -29)" fill="#fff"/>
    </g>
    <g id="_014-measure-tape" data-name="014-measure-tape" transform="translate(13.162 50.533) rotate(-90)">
      <path id="Path_353" data-name="Path 353" d="M0,0H4.284V1.676H0Z" transform="translate(20.925 14.242)" fill="#fff" opacity="0.3"/>
      <path id="Path_354" data-name="Path 354" d="M5.027,13.824H15.08V11.73h.838a.84.84,0,0,0,.838-.838V9.635H15.08V7.721c0-.059,0-.121,0-.18A7.648,7.648,0,0,0,7.816,0,7.543,7.543,0,0,0,0,7.541V11.73a5.051,5.051,0,0,0,.452,2.094ZM4.281,4.282A4.612,4.612,0,1,1,2.932,7.541,4.612,4.612,0,0,1,4.281,4.282Z" transform="translate(0.419 0.418)" fill="#fff" opacity="0.3"/>
      <g id="Group_336" data-name="Group 336" transform="translate(0 0)">
        <path id="Path_356" data-name="Path 356" d="M24.714,13.824h-8.8V12.567h.419a1.257,1.257,0,0,0,1.257-1.257V8.8A1.257,1.257,0,0,0,16.337,7.54h-.449A8.1,8.1,0,0,0,8.248.005,7.959,7.959,0,0,0,0,7.959v4.189a5.452,5.452,0,0,0,5.446,5.446H15.5a.419.419,0,0,0,.419-.419v-.838H24.3v.838h.838V14.242A.419.419,0,0,0,24.714,13.824ZM.838,7.959A7.121,7.121,0,0,1,7.956.838c.087,0,.175,0,.263,0a7.275,7.275,0,0,1,6.861,7.3v5.683H1.158a4.577,4.577,0,0,1-.32-1.676Z" fill="#fff" stroke="#fff" stroke-linecap="square" stroke-width="0.35"/>
        <path id="Path_357" data-name="Path 357" d="M5.027,10.053A5.027,5.027,0,1,0,0,5.027a5.027,5.027,0,0,0,5.027,5.027ZM.859,4.608a4.166,4.166,0,0,1,.926-2.23l.592-.592A4.166,4.166,0,0,1,4.608.859V2.094h.838V.859a4.166,4.166,0,0,1,2.23.926l.592.592a4.166,4.166,0,0,1,.926,2.23H7.959v.838H9.194a4.166,4.166,0,0,1-.926,2.23l-.592.592a4.166,4.166,0,0,1-2.23.926V7.959H4.608V9.194a4.166,4.166,0,0,1-2.23-.926l-.592-.592a4.166,4.166,0,0,1-.926-2.23H2.094V4.608Z" transform="translate(2.932 2.932)" fill="#fff" stroke="#fff" stroke-linecap="square" stroke-width="0.5"/>
        <path id="Path_358" data-name="Path 358" d="M1.452,2.9A1.452,1.452,0,1,0,0,1.452,1.452,1.452,0,0,0,1.452,2.9Z" transform="translate(6.507 6.507)" fill="#fff" stroke="#fff" stroke-linecap="square" stroke-width="0.35"/>
      </g>
    </g>
  </g>
</svg>
