<svg xmlns="http://www.w3.org/2000/svg" width="19.2" height="24" viewBox="0 0 19.2 24">
  <g id="Group_338" data-name="Group 338" transform="translate(-319 -120)">
    <path id="_309087-document-file-files-page-paper" data-name="309087-document-file-files-page-paper" d="M16,2H6.4A2.407,2.407,0,0,0,4,4.4V23.6A2.407,2.407,0,0,0,6.4,26H20.8a2.407,2.407,0,0,0,2.4-2.4V9.2Zm-1.2,8.4V3.8l6.6,6.6Z" transform="translate(315 118)" fill="#7daf3f"/>
    <g id="Page-1" transform="translate(331.011 130.779)">
      <g id="Icon-Set-Filled" transform="translate(-0.011 -0.023)">
        <path id="checkmark" d="M522.7,1039.164a.616.616,0,0,0-.883,0l-2.209,2.252-.552-.563a.618.618,0,0,0-.883,0,.646.646,0,0,0,0,.9l.994,1.014a.615.615,0,0,0,.883,0l2.65-2.7a.647.647,0,0,0,0-.9" transform="translate(-517.989 -1038.978)" fill="#f8f8f8" fill-rule="evenodd"/>
      </g>
    </g>
    <rect id="Rectangle_216" data-name="Rectangle 216" width="9" height="2" transform="translate(321 132)" fill="#f8f8f8"/>
    <g id="Page-1-2" data-name="Page-1" transform="translate(331.011 136.779)">
      <g id="Icon-Set-Filled-2" data-name="Icon-Set-Filled" transform="translate(-0.011 -0.023)">
        <path id="checkmark-2" data-name="checkmark" d="M522.7,1039.164a.616.616,0,0,0-.883,0l-2.209,2.252-.552-.563a.618.618,0,0,0-.883,0,.646.646,0,0,0,0,.9l.994,1.014a.615.615,0,0,0,.883,0l2.65-2.7a.647.647,0,0,0,0-.9" transform="translate(-517.989 -1038.978)" fill="#f8f8f8" fill-rule="evenodd"/>
      </g>
    </g>
    <rect id="Rectangle_217" data-name="Rectangle 217" width="9" height="2" transform="translate(321 138)" fill="#f8f8f8"/>
  </g>
</svg>
