<svg xmlns="http://www.w3.org/2000/svg" width="43.635" height="7.031" viewBox="0 0 43.635 7.031">
    <defs>
        <style>
            .prefix__cls-1{fill:#e8bd2b}
        </style>
    </defs>
    <g id="prefix__star">
        <path id="prefix__Path_132" d="M3.86.568l.94 2.219 2.4.206a.189.189 0 0 1 .108.332L5.486 4.9l.545 2.35a.189.189 0 0 1-.282.2L3.686 6.21 1.623 7.455a.189.189 0 0 1-.282-.2L1.887 4.9.065 3.325a.189.189 0 0 1 .108-.332l2.4-.206.939-2.219a.189.189 0 0 1 .349 0z" class="prefix__cls-1" data-name="Path 132" transform="translate(0 -.452)"/>
        <path id="prefix__Path_133" d="M3.86.568l.94 2.219 2.4.206a.189.189 0 0 1 .108.332L5.486 4.9l.545 2.35a.189.189 0 0 1-.282.2L3.686 6.21 1.623 7.455a.189.189 0 0 1-.282-.2L1.887 4.9.065 3.325a.189.189 0 0 1 .108-.332l2.4-.206.939-2.219a.189.189 0 0 1 .349 0z" class="prefix__cls-1" data-name="Path 133" transform="translate(9.088 -.452)"/>
        <path id="prefix__Path_134" d="M3.86.568l.94 2.219 2.4.206a.189.189 0 0 1 .108.332L5.486 4.9l.545 2.35a.189.189 0 0 1-.282.2L3.686 6.21 1.623 7.455a.189.189 0 0 1-.282-.2L1.887 4.9.065 3.325a.189.189 0 0 1 .108-.332l2.4-.206.939-2.219a.189.189 0 0 1 .349 0z" class="prefix__cls-1" data-name="Path 134" transform="translate(18.175 -.452)"/>
        <path id="prefix__Path_135" d="M3.86.568l.94 2.219 2.4.206a.189.189 0 0 1 .108.332L5.486 4.9l.545 2.35a.189.189 0 0 1-.282.2L3.686 6.21 1.623 7.455a.189.189 0 0 1-.282-.2L1.887 4.9.065 3.325a.189.189 0 0 1 .108-.332l2.4-.206.939-2.219a.189.189 0 0 1 .349 0z" class="prefix__cls-1" data-name="Path 135" transform="translate(27.263 -.452)"/>
        <path id="prefix__Path_162" d="M3.86.568l.94 2.219 2.4.206a.189.189 0 0 1 .108.332L5.486 4.9l.545 2.35a.189.189 0 0 1-.282.2L3.686 6.21 1.623 7.455a.189.189 0 0 1-.282-.2L1.887 4.9.065 3.325a.189.189 0 0 1 .108-.332l2.4-.206.939-2.219a.189.189 0 0 1 .349 0z" data-name="Path 162" transform="translate(36.263 -.452)" style="fill:#b7b7b7"/>
    </g>
</svg>
